<svg id="圖層_1" data-name="圖層 1" xmlns="http://www.w3.org/2000/svg" viewBox="0 0 390.69 110.08"><defs><style>.cls-1{fill:#b91c22;}.cls-2{fill:#040000;}</style></defs><title>工作區域 12</title><path class="cls-1" d="M123.4,61.26H61.71a1.64,1.64,0,0,1-1.62-1.42,27.71,27.71,0,0,1,0-3.59c0-.54,0-1,0-1.43,0-13.24,8.85-22.14,22-22.14,9.94,0,17.66,5.1,21.3,13.83a11.86,11.86,0,0,1,9.5-5C120,41.49,125,46.4,125,53.44v6.18A1.64,1.64,0,0,1,123.4,61.26ZM63.29,58h58.47V53.44c0-6-4.46-8.67-8.88-8.67a9,9,0,0,0-8.28,6.43A1.57,1.57,0,0,1,103,52.31a1.64,1.64,0,0,1-1.52-1.23C99,41.61,91.78,36,82.08,36c-11.38,0-18.73,7.4-18.73,18.86,0,.41,0,.95,0,1.51S63.29,57.43,63.29,58Z"/><path class="cls-2" d="M118.8,74.47A10.62,10.62,0,0,1,109,66.93c-2.43,9.42-9.62,16.35-21,16.35-11.62,0-20.37-7.47-20.37-20.5,0-1.3-.14-3.78,0-4.8h61.69v6.18C129.32,70.62,124.61,74.47,118.8,74.47Z"/><path class="cls-2" d="M160.1,65.41a30.21,30.21,0,0,1-5.94,8.74,22.79,22.79,0,0,0-2.11-2,20.86,20.86,0,0,0,5.4-7.56Zm5.58,9.15a62.93,62.93,0,0,1,4.43,6.88l-2.45,1.3a21.38,21.38,0,0,0-1-2c-9.63.76-11,.88-12,1.24a21.58,21.58,0,0,0-1-2.53,4.71,4.71,0,0,0,2-1.6,36.33,36.33,0,0,0,4.91-7.56l2.77,1.16A44.85,44.85,0,0,1,158,79l7.32-.48c-.64-1-1.3-2-1.91-2.91Zm.38-10a12.84,12.84,0,0,0,5.13,7.1,12.25,12.25,0,0,0-1.79,2.39,17.64,17.64,0,0,1-5.17-7H161V64.6Z"/><path class="cls-2" d="M184.51,76c.88,2.47,2.17,4.19,3.27,4.19.5,0,.7-.84.82-2.81a6,6,0,0,0,2.05,1.12c-.34,3.31-1.2,4-3,4-2.49,0-4.59-2.75-5.68-6.54h-5.21v3.73l4.75-1a14.94,14.94,0,0,0,.26,2.25c-5.86,1.36-6.84,1.55-7.46,1.89a7.62,7.62,0,0,0-1.06-2.09,2.05,2.05,0,0,0,1-1.72V65h14.52V71.5h-5.21a20.41,20.41,0,0,0,.32,2.25h6.3V76Zm-7.74-8.76V69.3h9.61V67.21Zm4.69,6.54a20.42,20.42,0,0,1-.3-2.25h-4.39v2.25Z"/><path class="cls-2" d="M198.65,76.84a21.5,21.5,0,0,0-1.2-2.19v8.1h-2.29V75.56A18.53,18.53,0,0,1,193,79.51a13,13,0,0,0-1.1-2.25,18.7,18.7,0,0,0,3-5.35h-2.69V69.7h3V67.45c-.78.12-1.52.24-2.25.32a7.14,7.14,0,0,0-.64-1.83,30.35,30.35,0,0,0,6.42-1.64L200,66.23a17.8,17.8,0,0,1-2.57.74V69.7h2.63v2.21h-2.63v.16c.58.56,2.21,2.43,2.59,2.89Zm9.83.86v5h-2.33V78.12l-6,1-.38-2.25,6.4-1.1V64.12h2.33V75.4l2-.34.38,2.21Zm-5-2.77a18,18,0,0,0-3.17-3.05l1.52-1.36a17.62,17.62,0,0,1,3.27,2.89Zm.52-5.27a15,15,0,0,0-3-3l1.56-1.36a15.92,15.92,0,0,1,3.07,2.87Z"/><path class="cls-2" d="M219,74.76c-.7.2-1.42.4-2.13.58v4.77c0,1.16-.22,1.71-.9,2.09a6.64,6.64,0,0,1-3,.42,10.31,10.31,0,0,0-.68-2.15c.78,0,1.6,0,1.85,0s.38-.1.38-.4V76l-1.93.48L212,74.21c.74-.14,1.6-.34,2.55-.58V70.1h-2.29V67.91h2.29V64.12h2.35v3.79h2V70.1h-2v3l1.83-.46Zm11-2.69a14.59,14.59,0,0,1-3.71,6.62,13.51,13.51,0,0,0,4.61,2,10.29,10.29,0,0,0-1.52,2.05,14.21,14.21,0,0,1-5-2.51,18.33,18.33,0,0,1-5.24,2.45,9.77,9.77,0,0,0-1.28-2.15,15.38,15.38,0,0,0,4.77-2,15.8,15.8,0,0,1-2.83-4.75l.6-.18h-1V71.53h3.93V69.14h-4.29V66.95h4.29V64.1h2.35v2.85h4.47v2.19h-4.47v2.39h2.39l.42-.1Zm-7.86,1.6a11.4,11.4,0,0,0,2.35,3.53A11.12,11.12,0,0,0,227,73.67Z"/><path class="cls-2" d="M236.14,69.72v-.78A21.34,21.34,0,0,1,234,70.38h8.42v6.26h-6.92c0,.2-.06.42-.1.62h7.5v5.32h-2.07V82h-3.69v.62h-2V78.53A12.76,12.76,0,0,1,233.89,82a10.92,10.92,0,0,0-2.07-.92c1.58-2.53,1.74-6.1,1.74-8.44v-2l-.46.24a12.68,12.68,0,0,0-1.24-2.27,13.71,13.71,0,0,0,5.92-4.53L240,65c-.12.18-.24.34-.36.5,1.48.86,3.13,1.83,4,2.49l-1.22,2c-.54-.44-1.32-1-2.17-1.52v1.3ZM240.27,75v-.82h-4.57c0,.26,0,.54,0,.82Zm-4.53-3v.78h4.53V72Zm4.37-3.69-1.89-1.2c-.42.4-.86.82-1.3,1.2Zm-3,10.55v1.42h3.69V78.87Zm9.11-1.58H244V66.17h2.23Zm3.65-13.12V79.89c0,1.28-.24,1.92-1,2.29a7.56,7.56,0,0,1-3.43.48,9.71,9.71,0,0,0-.7-2.37c1,0,2.05,0,2.37,0s.46-.1.46-.44V64.18Z"/><path class="cls-2" d="M255.41,77.14a19,19,0,0,1-2,4.09,15.06,15.06,0,0,0-1.56-1.08,14.24,14.24,0,0,0,1.76-3.53ZM258.2,76V82.6h-2.29V76H252.2V74h3.71V72.45h-3.83v-2H254a12,12,0,0,0-.58-2.07l1.64-.4h-2.69V66.09h3.41c-.18-.54-.4-1.1-.6-1.57l2.37-.58c.3.66.66,1.47.9,2.15h2.85V68h-2.49l1.62.32c-.3.76-.6,1.54-.9,2.15h2.07v2H258.2V74h3.09v2Zm-2.87-8A9.85,9.85,0,0,1,256,70.1l-1.44.4h2.87a22.73,22.73,0,0,0,.86-2.47Zm15.18,4.85h-1.85v9.79h-2.31V72.87h-1.85v.24c0,2.93-.26,7-2,9.59a8.92,8.92,0,0,0-1.83-1.42,7.8,7.8,0,0,0,.9-1.93l-1.42.88a24.14,24.14,0,0,0-1.56-3l1.56-.84a19.62,19.62,0,0,1,1.5,2.61,21.55,21.55,0,0,0,.62-5.9V66a28.41,28.41,0,0,0,6-1.7l1.81,1.73a30.92,30.92,0,0,1-5.66,1.5v3.13h6Z"/><path class="cls-2" d="M284.59,78.69c2.13.72,4.55,1.6,6,2.21l-1.08,1.86a83.5,83.5,0,0,0-7.78-3.07l.62-1h-.6c-.94,1.68-3.27,3.31-8.58,4.17a11.65,11.65,0,0,0-1.32-1.91c3.59-.54,5.62-1.36,6.76-2.25h-6.66v-2h8a4.88,4.88,0,0,0,0-.54V74.88h2.35v1.4a3.52,3.52,0,0,1,0,.46h3.47a14.23,14.23,0,0,0-1.32-1l.72-.68h-.76a7,7,0,0,0-.58-1.71c.64,0,1.38,0,1.6,0s.28-.08.28-.28V72h-3.31a7.25,7.25,0,0,1,1.32,1.2l-1.56,1.18a8.52,8.52,0,0,0-2-1.76L281,72h-2V70.42h.78A5.28,5.28,0,0,0,279,69.3a19,19,0,0,0,5-1.12,13.78,13.78,0,0,0-1.66-1.56c-.64.24-1.38.48-2.15.7A5.31,5.31,0,0,0,279.06,66a13.55,13.55,0,0,0,5.23-2l2,.4c-.28.24-.56.46-.86.68h2.77l.38-.06,1.22.62a8.24,8.24,0,0,1-4,3.47H288v1.28h2.25V72H288v1.24c0,.94-.18,1.36-.84,1.63a3.63,3.63,0,0,1-1.06.22,9.82,9.82,0,0,1,1.56,1.24l-.46.46h3.31v2Zm-9.35-6.84a5.45,5.45,0,0,1-1.6,4,9,9,0,0,0-1.79-1,3.93,3.93,0,0,0,1.32-3H272V70h4.25v-1.1h-3.47V64.61h2v2.51h1.5v-3h2.15V75.52h-2.15V71.85Zm7.44-3.43-2.79.3-.2-1.2,3-.22Zm3,2V69.18a18.64,18.64,0,0,1-4.15,1.24Zm-1.52-4c.44.36.88.78,1.26,1.16A7,7,0,0,0,287,66.39Z"/><path class="cls-2" d="M309.8,69.46c-.18,8.18-.36,11.11-1,12a2.17,2.17,0,0,1-1.66,1,14.54,14.54,0,0,1-2.71.06,5.11,5.11,0,0,0-.7-2.25c1,.06,1.87.08,2.31.08a.7.7,0,0,0,.7-.34c.46-.54.64-3,.76-9.41h-2.11c-.3,5.26-1.38,9.45-5.23,12.11a7.8,7.8,0,0,0-1.66-1.79,8.78,8.78,0,0,0,2.35-2.25c-3.05.76-6.32,1.52-8.75,2.09l-.38-2.43,1.38-.26V64.93H300V76.68l.86-.18.22,1.87c1.34-2.07,1.81-4.65,2-7.74h-2.53V68.4h2.61c0-1.36,0-2.77,0-4.29h2.33c0,1.49,0,2.93,0,4.29h4.33Zm-14.62-2.39v2h2.63v-2Zm2.63,4.09h-2.63v2.05h2.63Zm-2.63,6.54c.84-.16,1.72-.36,2.63-.54V75.28h-2.63Z"/><path class="cls-2" d="M322.32,72.05v2.07h6.36v2.13h-3.15l2,.72c-.7,1.12-1.48,2.31-2.09,3.17h4.29v2.17H312.47V80.15h3.93a16.56,16.56,0,0,0-1.66-3.23l1.58-.66h-2.89V74.13h6.34V72.05h-4v-1q-1.26.6-2.57,1.08a8.59,8.59,0,0,0-1.58-2.2c3.75-1.08,7.34-3.09,9.23-6.06l2.25,1-.56.8A22.07,22.07,0,0,0,330.68,70,11.6,11.6,0,0,0,329,72a26,26,0,0,1-2.71-1.16v1.18Zm-5.56,4.21a13.62,13.62,0,0,1,1.73,3.17l-1.64.72h2.91V76.26Zm7.82-6.38a23,23,0,0,1-3.45-2.59,17.69,17.69,0,0,1-3.23,2.59Zm-2.25,6.38v3.89h2.49l-1.34-.56a18.25,18.25,0,0,0,1.75-3.33Z"/><path class="cls-2" d="M162.87,38.88a24.81,24.81,0,0,1,8.92,1.38V36.95a28.76,28.76,0,0,0-8.85-1.14c-5.58,0-8.24,1.12-9.56,2.44a6.69,6.69,0,0,0-1.85,5,6.69,6.69,0,0,0,1.85,5c1.34,1.36,3.94,2.44,9.38,2.44,4.35,0,7-.61,8.69-2.27.91-.91,1.38-2.19,1.38-4.39V42.13H160.7v2.76h8.51a2,2,0,0,1-.47,1.54c-.89.89-3.07,1.18-6,1.18-3.55,0-5.4-.65-6.26-1.52a3.93,3.93,0,0,1-1-2.88,4,4,0,0,1,1-2.94c.77-.77,2.64-1.4,6.28-1.4Z"/><path class="cls-2" d="M231,36.32h-4.55l-7.29,10.86-7.27-10.86h-4.75l9.52,13.79h4.83L231,36.32Z"/><path class="cls-1" d="M206,26.8h-3.92L176.46,59.63h4Z"/><path class="cls-2" d="M200.52,38.29c-1.3-1.3-3.8-2.48-9.3-2.48-5.3,0-8,1.16-9.32,2.48a6.46,6.46,0,0,0-1.85,4.93,6.41,6.41,0,0,0,1.85,4.91c1.3,1.3,3.92,2.5,9.32,2.5s8-1.18,9.3-2.48a6.46,6.46,0,0,0,1.85-4.93A6.43,6.43,0,0,0,200.52,38.29Zm-9.3,9.34c-3.55,0-5.38-.73-6.17-1.52a3.7,3.7,0,0,1-1-2.9,3.76,3.76,0,0,1,1-3c.81-.81,2.64-1.46,6.19-1.46s5.32.67,6.15,1.5a3.67,3.67,0,0,1,1,2.92,3.76,3.76,0,0,1-1,3C196.56,47,194.77,47.62,191.22,47.62Z"/></svg>