<svg xmlns="http://www.w3.org/2000/svg" width="400" height="336" viewBox="0 0 400 336"><g fill="#3D3939"><path d="M63.365 149.254c-.795-.861-2.054-2.583-2.65-3.444l-2.317 3.51H16.936c-1.258 0-2.119-.661-2.518-1.523-.463-.993-.331-2.252.53-3.245l16.359-19.405h7.948l-16.359 19.405h37.023c-2.583-4.239-5.167-8.941-7.219-13.445h6.821c2.914 6.426 7.087 12.717 11.855 18.148l-8.011-.001zm2.913 31.592c-1.06 1.191-2.583 1.79-4.04 1.79h-39.54c-1.656 0-3.047-.599-4.107-1.592-1.192-1.128-1.854-2.714-1.854-4.438v-14.9c0-1.656.596-3.112 1.656-4.173s2.583-1.723 4.437-1.723h39.21c1.723 0 3.312.729 4.371 1.922.928 1.058 1.458 2.516 1.458 4.237v14.506c-.001 1.855-.598 3.31-1.591 4.371zm-4.504-18.279c0-1.126-.926-1.923-1.92-1.923h-34.97c-.861 0-1.921.797-1.921 1.854v13.642c0 .864.597 1.656 1.524 1.656h35.699c.663 0 1.589-.792 1.589-1.656l-.001-13.573zM82.572 182.967h-6.425c2.317-6.095 5.298-17.089 5.96-23.778h5.695c-.861 6.093-3.311 17.416-5.23 23.778zm-.531-44.046c-1.589-3.113-4.503-9.934-5.762-13.908h6.093c.927 3.576 3.908 10.266 6.093 13.908h-6.424zm-.198 16.889c-1.789-3.444-4.504-10.596-5.498-14.57h6.027c.927 3.907 3.975 10.928 6.093 14.57h-6.622zm10.464-1.721h-3.708c.728-2.318 1.391-6.557 1.589-9.604H93.5c-.133 2.98-.531 7.086-1.193 9.604zm32.454-14.637h4.703c-.265-.927-.662-2.583-.795-3.312h3.644c.264 1.722 1.191 5.034 1.986 6.755h-3.775c-.265-.662-.662-1.988-.926-2.717l-1.59 2.717h-6.358c-1.258 0-2.053-.598-2.318-1.391-.266-.795 0-1.854.86-2.716 1.325-1.39 3.378-3.577 4.106-4.568h-2.185c-.662 0-1.193-.132-1.59-.398-.53-.33-.794-.86-.993-1.457h-15.763v-1.524c-1.987 2.055-6.491 6.69-8.743 8.875h4.636c-.199-.862-.53-2.317-.596-3.244h3.643c.199 1.788.993 4.834 1.721 6.556h-3.775a47.007 47.007 0 0 1-.795-2.318l-1.522 2.318h-7.352c-.795 0-1.458-.529-1.723-1.192-.331-.661-.266-1.456.331-2.054 1.59-1.522 3.842-3.906 5.167-5.363H91.58a2.205 2.205 0 0 1-1.986-1.193c-.332-.729-.332-1.855.332-2.451a225.103 225.103 0 0 0 5.431-5.697h5.629a272.883 272.883 0 0 1-6.027 6.293h2.848c.464-.464 1.391-1.39 1.723-1.79h4.239v-1.06h5.166c-.331-.926-.729-2.583-.926-3.51h5.363c.067.862.531 2.584.862 3.51h5.762v1.789c1.324-1.39 3.578-4.04 4.703-5.43h5.033c-1.192 1.589-3.841 4.769-5.299 6.357h2.715c.728-.727 1.855-1.987 2.385-2.716h5.034c-2.455 2.85-6.628 7.553-9.806 10.931zm6.755 41.859c-.86.991-2.252 1.656-3.643 1.656h-18.015l-2.518-4.175h18.214c.531 0 1.126-.729 1.126-1.324v-1.458c0-.596-.53-1.39-1.126-1.39H96.148c-1.391 0-2.516-.397-3.31-1.191-.729-.729-1.126-1.723-1.126-3.048v-2.251c0-1.723.596-2.916 1.656-3.71.861-.597 1.987-.928 3.444-.928h27.818c.596 0 1.192-.728 1.192-1.258v-.728c0-.596-.53-1.126-1.127-1.126H90.982v-3.843h36.36c1.458 0 2.716.398 3.51 1.128.596.662.994 1.522.994 2.716v2.979c0 1.257-.464 2.252-1.258 2.981-.795.661-1.921 1.059-3.246 1.059H98.665c-.528 0-1.059.53-1.059 1.127v1.127c0 .596.531 1.125 1.126 1.125h29.54c1.258 0 2.185.464 2.913 1.061a4.455 4.455 0 0 1 1.325 3.179v3.642c0 .993-.398 1.921-.994 2.65zm-35.964-27.222c-.331-2.318-.794-7.154-.794-9.604h3.046c-.066 2.451.396 7.154.86 9.604h-3.112zm4.769 0c-.531-2.649-.995-7.22-1.061-9.604h2.982c.065 2.716.728 7.22 1.257 9.604h-3.178zm17.286-.861c-.597.596-1.391.928-2.384.928h-7.683c-1.06 0-1.92-.265-2.45-.861-.596-.597-.928-1.391-.928-2.45v-2.848c0-1.259.397-2.252 1.192-2.914.597-.465 1.391-.663 2.384-.663h7.418c1.06 0 1.987.398 2.582 1.126.465.596.73 1.324.73 2.317v3.047a3.434 3.434 0 0 1-.861 2.318zM104.89 137.53v-3.311h13.379v3.311H104.89zm0 5.099v-3.376h13.444v3.376H104.89zm9.008 6.096c0-.464-.397-.994-.861-.994h-3.378c-.464 0-.993.464-.993.994v1.06c0 .53.462.994.993.994h3.444c.465 0 .795-.464.795-.928v-1.126zm8.413 5.296h-3.578c.927-2.849 1.524-7.02 1.657-9.67h3.312c-.001 2.584-.664 7.088-1.391 9.67zm3.309 0c-.396-2.186-.728-6.953-.661-9.67h2.98c.065 2.584.597 7.484.994 9.67h-3.313zm5.168 0c-.464-2.318-.994-7.153-1.193-9.67h3.179c.199 2.451.794 7.286 1.259 9.67h-3.245zM151.318 182.967h-12.451c4.967-1.856 9.471-4.771 12.584-7.42h9.471c-2.781 2.979-6.094 5.563-9.604 7.42zm-11.723-36.693v-4.836c6.425-.661 12.65-2.053 18.677-3.708v4.636c-6.225 1.655-12.252 2.98-18.677 3.908zm8.147-11.856c-2.45-1.987-5.365-5.3-7.088-7.816h8.08c2.055 2.848 5.034 5.763 7.949 7.816h-8.941zm43.515 37.754c-.862 1.059-2.119 1.722-3.577 1.722h-38.678c-1.391 0-2.716-.661-3.643-1.656-.795-.862-1.325-1.986-1.325-3.245v-15.167c0-1.325.596-2.517 1.589-3.379a5.248 5.248 0 0 1 3.444-1.257h38.215c1.325 0 2.584.464 3.512 1.324a5.067 5.067 0 0 1 1.722 3.775v14.439a5.267 5.267 0 0 1-1.259 3.444zm-4.968-17.487c0-.661-.794-1.325-1.522-1.325h-33.315c-.596 0-1.391.533-1.391 1.325v1.259h36.229v-1.259zm0 5.166H150.06v3.18h36.229v-3.18zm0 6.955H150.06v1.456c0 .861.862 1.59 1.723 1.59h32.983c.859 0 1.522-.596 1.522-1.458v-1.588zm-2.45-19.474c-2.517-1.588-5.033-3.907-7.021-6.358-2.053 2.915-4.901 5.433-8.279 6.358h-13.114c5.232-1.257 9.802-3.18 12.914-5.562 2.715-2.054 4.57-4.638 4.703-8.147h6.092c-.197 1.722-.794 3.908-1.589 5.696h5.697c3.642 3.577 8.146 5.895 13.377 8.013h-12.78zm9.338-10.132h-7.153c1.257-1.789 2.119-3.18 2.516-4.305.134-.398-.198-.862-.53-.862h-19.734c-1.061 1.658-2.319 3.446-3.512 4.836h-7.947c3.312-3.51 6.358-7.352 8.08-11.723h6.755c-.132.663-.729 2.053-.995 2.647h20.931c1.128 0 2.187.398 2.913 1.127.795.795 1.194 2.054.928 3.379-.331 1.589-1.325 3.51-2.252 4.901zm-8.014 45.767c-3.18-2.121-6.492-4.571-9.271-7.42h9.669c3.577 2.916 7.749 5.629 12.053 7.42h-12.451zM219.404 149.519v33.378h-5.764v-33.378h-11.522v-4.437h11.522v-20.136h5.764v20.136h10.064v4.437h-10.064zm-11.195 28.944h-6.028c3.311-8.478 4.638-17.42 4.638-26.493h5.299c-.001 7.948-1.325 19.008-3.909 26.493zm-1.456-36.098c-2.054-4.57-3.378-9.337-4.306-14.373h5.829c.729 4.967 2.185 9.87 4.173 14.373h-5.696zm19.34 0h-5.633c1.991-4.437 3.778-9.337 4.572-14.373h5.562c-1.125 4.903-2.449 9.87-4.501 14.373zm-1.457 36.098c-2.119-8.414-2.981-17.42-3.512-26.493h5.165c.533 9.14 1.526 18.214 4.107 26.493h-5.76zm31.26-10.995v15.299h-5.961v-14.969l-18.741 1.193v-4.637l18.741-1.191v-38.217h5.961v37.819l3.908-.132v4.636l-3.908.199zm-15.432-25.765c-3.441-4.304-6.025-8.94-8.28-13.708h6.89c2.253 4.834 4.967 9.67 9.14 13.708h-7.75zm-.661 15.963c-2.849-4.107-5.168-8.479-6.822-13.116h6.49c1.855 4.637 4.438 9.206 7.948 13.116h-7.616zM270.398 176.211h-5.695c2.649-8.942 3.511-18.612 3.775-28.48h5.032c-.063 9.734-.992 19.471-3.112 28.48zm10.598-31.396v38.283h-5.628v-38.283h-9.803v-4.636h9.803v-8.477c-2.517.132-5.962.331-8.808.463v-4.503c7.88-.199 15.562-1.06 22.914-2.584v4.702c-2.317.399-6.49 1.061-8.479 1.326v9.073h9.869v4.636h-9.868zm4.967 31.396c-2.051-9.604-2.913-20.068-3.111-28.48h5.165a120.7 120.7 0 0 0 3.778 28.48h-5.832zm32.255-10.2v17.087h-6.093v-16.16l-20.33 2.648v-4.768l20.33-2.648v-37.09h6.093v36.294l4.706-.528v4.635l-4.706.53zm-17.485-8.014c-3.311-3.976-6.227-8.543-8.677-13.182h6.756c2.649 4.636 5.762 9.207 9.804 13.182h-7.883zm.729-16.227c-3.378-4.173-6.291-8.676-8.543-13.247h6.957c2.448 4.372 5.495 9.406 9.401 13.247h-7.815zM360.276 170.646v6.625c0 1.853-.399 3.376-1.458 4.369-.859.796-2.252 1.326-4.107 1.326h-8.608l-1.654-4.44h8.541c.661 0 1.126-.396 1.126-1.192v-6.688h-26.094v-4.239h26.094v-1.457c2.255-.596 6.094-2.054 7.948-2.848h-23.246v-4.306h32.188c1.259 0 2.054.661 2.319 1.456.33.928.065 1.987-.927 2.583-2.517 1.456-6.822 3.376-10.264 4.57h23.711v4.239l-25.569.002zm18.745-10.132v-5.033c0-.796-.463-1.325-1.262-1.325H335.97c-.53 0-1.258.595-1.258 1.325v5.033h-5.896v-5.299c0-1.324.267-2.318.664-3.113.53-.926 1.324-1.522 2.317-2.052v-18.346c0-.927.463-1.789 1.059-2.518.794-.86 1.854-1.456 2.584-1.589 3.378-.53 9.207-1.722 12.385-2.65v4.636c-2.386.531-6.888 1.458-9.14 1.921-.599.132-1.26.729-1.26 1.391v1.258h9.009v3.775h-9.009v4.106h9.009v3.907h-9.009v3.909h38.748v-3.909h-8.743v-3.907h8.743v-4.106h-8.743v-3.775h8.874v-2.649c0-.861-.53-1.458-1.523-1.458h-8.014v-4.105h9.604c1.787 0 3.245.529 4.173 1.589.859.927 1.324 2.252 1.324 4.04v18.611c.86.332 1.589.995 2.054 1.723.53.861.795 1.722.795 2.648v5.961l-5.696.001zm-18.677-12.253c-.864-.53-2.453-1.655-3.247-2.251-.993.794-2.517 1.787-3.443 2.251H346.5c1.988-1.192 5.764-3.644 7.418-5.034-1.455-1.39-3.906-3.907-5.297-5.497h6.094c.527.729 1.92 2.054 2.581 2.716.729-.597 2.119-1.921 2.914-2.716h5.962c-1.393 1.59-4.24 4.371-5.696 5.628 1.722 1.525 5.101 3.843 6.888 4.902h-7.02zm-.865-11.924c-.596-.397-1.853-1.325-2.45-1.853-.728.528-2.052 1.457-2.78 1.853h-7.021c1.722-1.126 5.034-3.443 6.558-4.702-1.327-1.193-3.977-3.907-5.301-5.895h6.027c.729.929 2.054 2.384 2.649 3.048.797-.729 2.187-2.054 3.114-3.048h5.827c-1.657 2.053-4.173 4.703-5.631 5.961 1.523 1.259 4.638 3.578 6.229 4.638h-7.222v-.002zM89.725 253.732c-3.443-1.523-8.609-3.974-11.79-5.562-2.715 1.325-8.676 4.17-11.788 5.562H52.238c6.491-2.584 14.042-5.829 19.604-8.675a172.3 172.3 0 0 1-10.199-5.63h10.332c1.258.729 4.172 2.187 5.563 2.848a120.22 120.22 0 0 0 8.478-4.769c.198-.067.198-.396-.134-.396H59.258c-2.053 5.429-4.239 10.728-7.352 16.622h-7.021a97.184 97.184 0 0 0 10.399-24.108h6.359c-.199.928-.597 2.119-.994 3.047h31.726c1.655 0 2.782.794 3.245 1.853.662 1.458.132 3.381-1.656 4.505-2.385 1.523-7.815 4.635-10.331 6.027 5.96 2.848 12.385 5.631 19.935 8.677H89.725v-.001zm6.358-34.574v-4.968c0-.992-.728-1.586-1.656-1.586H53.23c-.596 0-1.391.729-1.391 1.586v4.968h-6.026v-5.696c0-1.455.462-2.913 1.522-3.904.929-.862 2.252-1.458 4.108-1.458h4.635c-.861-1.588-2.252-4.635-2.914-6.16-1.59.067-4.967-.065-6.623-.199v-4.633c16.027.199 40.6.33 54.774-1.327v4.769c-1.126.134-2.98.267-4.04.267-1.391 2.451-2.982 4.899-4.638 7.284h3.775c1.789 0 3.245.53 4.173 1.458 1.06.991 1.59 2.386 1.59 3.975v5.628H96.08v-.004zm-42.918 9.672h-7.351c4.371-4.705 7.286-8.943 9.802-13.247h6.225c-1.854 3.708-5.63 9.404-8.676 13.247zm15.1-26.891c-2.914.065-6.159.131-8.941.065.794 2.054 1.987 4.173 3.311 6.093h8.544c-1.126-1.985-2.185-4.305-2.914-6.158zm17.617 27.419H67.868c-1.325 0-2.583-.594-3.51-1.654-.662-.862-1.126-1.988-1.126-3.18v-10.266h5.961v9.471c0 .662.728 1.258 1.258 1.258H88.4l-2.518 4.371zm-8.344-6.754c-1.723-2.649-3.179-5.432-4.305-8.345h5.895a57.436 57.436 0 0 0 5.101 8.345h-6.691zm-3.047-20.864c.994 2.188 2.054 4.307 3.247 6.359h7.947c1.656-2.254 3.246-4.504 4.637-6.89-4.902.266-13.049.6-15.831.531zm19.803 27.09c-3.112-4.173-5.829-8.611-8.014-13.247h6.358c2.385 4.769 5.365 9.009 9.206 13.247h-7.55zM125.224 253.798c-1.192-1.591-3.577-5.165-4.703-7.021-1.656 2.451-3.511 4.967-5.232 7.021h-8.08a72.44 72.44 0 0 0 10.002-12.251c-2.385-3.844-5.034-8.28-6.889-11.593-.729-1.322-.662-3.047-.331-4.769.794-4.105 1.92-10.596 2.451-15.232h-4.636v-4.636h5.166c.53-3.114.86-6.425 1.059-9.403h5.629c-.198 2.516-.728 6.623-1.126 9.403h5.96c1.524 0 2.782.465 3.775 1.257 1.458 1.191 2.185 3.047 2.054 5.233-.531 10.399-1.656 20.6-6.425 29.209 2.848 4.371 5.894 8.675 9.14 12.781h-7.814zm-2.186-43.845h-4.967c-.662 4.901-1.854 12.186-2.583 16.162-.132.661.065 1.324.332 1.853 1.39 2.386 3.178 5.432 4.569 7.616 3.312-7.35 4.239-15.496 4.437-23.776.067-.996-.794-1.855-1.788-1.855zm28.547 16.823v20.929c0 1.853-.53 3.311-1.458 4.306-1.126 1.191-2.716 1.787-4.571 1.787h-6.358l-2.252-4.769h7.153a1.4 1.4 0 0 0 1.391-1.392v-20.861h-14.307v-4.502h14.307v-7.023c4.173-3.903 8.079-8.144 11.059-12.516.199-.329 0-.729-.397-.729h-22.849v-4.638h26.162c1.324 0 2.517.797 3.179 1.921.663 1.061.795 2.45.132 3.775-1.788 3.446-7.749 10.333-11.193 13.445v5.764h13.976v4.502h-13.974v.001zM206.753 218.63c-3.71 2.715-7.747 5.299-11.59 7.684h22.122c1.853 0 3.376.528 4.502 1.456 1.194 1.061 1.921 2.584 1.921 4.504v15.698c0 1.257-.596 2.649-1.589 3.772-.995 1.127-2.383 1.921-4.107 1.921h-30.928c-1.855 0-3.313-.727-4.306-1.921-1.059-1.257-1.589-3.046-1.589-5.1v-12.979h-10.333c9.205-3.977 18.147-9.272 26.757-15.034h-26.824v-4.572h22.718v-7.684H175.56v-4.369h17.947v-6.229h6.095v6.229h13.841v3.577c1.787-1.591 4.369-4.636 5.895-6.691h7.352c-4.303 5.432-9.006 10.665-14.373 15.167h16.229v4.572h-21.791v-.001zm10.861 13.777c0-.93-.792-1.592-1.654-1.592h-26.891c-.992 0-1.787.862-1.787 1.788v5.233h30.332v-5.429zm0 9.67h-30.332v5.364c0 .925.795 1.722 1.787 1.722h26.758c1.059 0 1.787-.797 1.787-1.722v-5.364zm-18.01-35.701v7.684h4.236c2.715-2.053 6.227-4.836 8.808-7.684h-13.044zM268.016 237.572v16.093h-6.093v-16.093h-28.148V233h7.75v-11.522c0-1.591.663-3.111 1.722-4.107.995-.995 2.32-1.591 3.909-1.591h14.768v-10.067h-15.1c-1.722 3.444-4.24 7.817-6.027 10.201h-7.75c5.696-5.829 9.272-13.512 11.193-20.002h6.556c-.465 1.391-1.325 3.708-1.988 5.099H290.8v4.702h-22.784v10.067h20.6v4.703h-20.6V233h23.513v4.57h-23.513v.002zm-6.093-17.09h-12.915c-.661 0-1.322.666-1.322 1.327V233h14.237v-12.518zM345.705 209.556c-2.979-2.519-6.755-6.093-9.336-8.811-.468-.462-1.525-.857-2.187-.857h-16.561c-.729 0-1.985.528-2.383.991-2.385 2.519-6.425 6.425-9.207 8.677h-9.738c5.963-3.71 11.395-8.677 14.903-12.252.463-.53 1.126-.928 1.988-1.193.659-.196 1.322-.332 2.117-.332h21.526c.729 0 1.523.201 2.252.465.795.265 1.523.729 1.986 1.194 3.577 3.772 8.346 8.146 13.644 12.12h-9.006v-.002zm3.908 17.816c-.993 1.061-2.383 1.853-4.042 1.853h-40.799c-1.257 0-2.383-.596-3.245-1.39-1.058-.993-1.722-2.383-1.722-3.71v-6.953c0-1.455.596-2.848 1.591-3.841.993-1.061 2.384-1.722 3.907-1.722h39.937c1.458 0 2.915.462 3.974 1.388 1.194.995 1.923 2.517 1.923 4.438v6.292c0 1.26-.531 2.586-1.524 3.645zm-3.51 24.77c-1.059.928-2.582 1.458-4.369 1.458h-33.58c-1.324 0-2.715-.594-3.71-1.523-1.059-1.059-1.785-2.517-1.785-4.104v-10.399c0-1.458.86-2.915 2.117-3.843a5.504 5.504 0 0 1 3.378-1.191h34.173c1.657 0 3.114.661 4.175 1.656 1.059 1.061 1.654 2.582 1.654 4.371v9.271a5.488 5.488 0 0 1-2.053 4.304zm-23.577-36.229h-15.434c-.664 0-1.393.661-1.393 1.46v5.96c0 .995.598 1.589 1.257 1.589h6.428c-.795-1.654-2.451-5.231-3.245-7.287h5.759c.663 2.056 2.453 5.564 3.381 7.287h3.247v-9.009zm19.667 22.386c0-.727-.925-1.455-1.722-1.455h-30.003c-.993 0-1.591.729-1.591 1.523v2.516h33.315v-2.584h.001zm0 6.757H308.88v2.519c0 .925.86 1.654 1.523 1.654h30.136c.995 0 1.654-.795 1.654-1.722v-2.451zm-28.874-36.891v-4.172h24.902v4.172h-24.902zm32.119 9.339c0-.795-.729-1.591-1.589-1.591h-15.363v9.009h3.245c1.191-1.921 2.913-5.168 3.643-7.287h5.761c-.528 1.724-2.119 5.235-3.509 7.287h6.227c.925 0 1.588-.728 1.588-1.589v-5.829h-.003z"/></g><path fill="#3D3939" d="M198.94 324.092c-44.03 0-86.352-18.638-116.115-51.132l1.698-1.555c29.328 32.02 71.031 50.385 114.417 50.385 43.383 0 85.084-18.365 114.412-50.385l1.699 1.555c-29.763 32.496-72.082 51.132-116.111 51.132zM313.355 64.594c-29.328-32.019-71.032-50.383-114.415-50.383-43.387 0-85.09 18.365-114.416 50.383l-1.698-1.556c29.764-32.494 72.084-51.13 116.116-51.13 44.028 0 86.351 18.636 116.112 51.13l-1.699 1.556z"/><g fill="#EC8122"><path d="M153.307 277.489v30.745a156.054 156.054 0 0 0 23.816 5.206v-35.951h-23.816zM186.734 296.633v17.825c3.931.296 7.9.456 11.908.456 4.003 0 7.976-.16 11.906-.456v-17.825h-23.814zM220.754 286.333v26.814a155.09 155.09 0 0 0 23.817-5.531v-21.283h-23.817z"/></g><path fill="#EC8122" d="M124.331 93.36l-3.354-4.138V78.79H110.13v10.495l-8.478 10.564h-7.671L82.3 81.936h.465V71.09H71.917v10.846h9.697l-.483.313 11.476 17.6h-.658v10.848h10.846v-10.43l8.53-10.631h8.507l3.017 3.724h-.751v10.847h10.848V93.36z"/><g fill="#EC8122"><path d="M164.742 102.064v.178h21.006v7.768h-34.071v-7.293l14.834-11.651c2.982-2.352 5.083-4.324 6.297-5.915 1.216-1.591 1.824-3.265 1.824-5.025 0-3.914-2.564-5.87-7.688-5.87-4.451 0-8.71 1.453-12.776 4.357v-8.241c4.5-2.393 9.576-3.588 15.231-3.588 5.292 0 9.425 1.092 12.397 3.277s4.457 5.134 4.457 8.85c0 4.961-3.62 10.091-10.862 15.387l-10.649 7.766zM205.72 110.751c-12.319 0-18.479-7.105-18.479-21.316 0-7.372 1.666-12.991 4.999-16.855 3.332-3.863 8.163-5.796 14.49-5.796 12.03 0 18.046 7.225 18.046 21.673 0 7.194-1.642 12.71-4.927 16.544-3.284 3.833-7.994 5.75-14.129 5.75zm.506-36.822c-4.934 0-7.399 5.09-7.399 15.268 0 9.586 2.418 14.38 7.255 14.38 4.716 0 7.074-4.94 7.074-14.824-.001-9.883-2.311-14.824-6.93-14.824zM260.559 110.01h-32.735v-7.412h10.719V76.123l-11.007 1.958v-7.59l22.376-3.707v35.815h10.647v7.411z"/></g><g><path fill="#EC8122" d="M294.475 68.199l-.262 7.719c-2.534-1.291-5.325-1.988-8.371-2.086-3.757-.122-6.827.965-9.211 3.26-2.384 2.292-3.688 5.425-3.918 9.398l.214.007c2.533-2.883 6.138-4.248 10.814-4.097 4.253.138 7.584 1.436 9.996 3.894 2.412 2.459 3.551 5.647 3.419 9.564-.144 4.21-1.913 7.656-5.315 10.335-3.4 2.68-7.652 3.938-12.756 3.771-5.717-.184-10.124-2.034-13.221-5.549-3.099-3.514-4.542-8.351-4.334-14.51.244-7.251 2.508-12.977 6.789-17.18 4.279-4.203 9.963-6.19 17.051-5.96 3.921.125 6.955.605 9.105 1.434zm-14.757 20.919c-2.055-.066-3.711.475-4.967 1.624-1.258 1.149-1.916 2.65-1.979 4.502-.068 2.047.491 3.816 1.684 5.309 1.19 1.492 2.814 2.271 4.869 2.337 2.007.064 3.637-.529 4.885-1.786s1.907-2.93 1.979-5.016c.151-4.503-2.006-6.826-6.471-6.97z"/></g></svg>