<?xml version="1.0" encoding="UTF-8"?>
<svg id="content" xmlns="http://www.w3.org/2000/svg" viewBox="0 0 600 600">
  <defs>
    <style>
      .cls-1 {
        fill: #6450dc;
      }

      .cls-1, .cls-2 {
        stroke-width: 0px;
      }

      .cls-2 {
        fill: #fff;
      }
    </style>
  </defs>
  <g>
    <rect class="cls-2" x="39.67" y="39.67" width="520.66" height="520.66"/>
    <path class="cls-1" d="M560.33,39.67v520.66H39.67V39.67h520.66M560.33,23.7H32.75c-5,0-9.05,4.05-9.05,9.05v534.5c0,5,4.05,9.05,9.05,9.05h534.5c5,0,9.05-4.05,9.05-9.05V32.75c0-5-4.05-9.05-9.05-9.05h-6.92Z"/>
  </g>
  <g>
    <path class="cls-1" d="M133.39,306.51c-6,0-11.13-1.28-15.39-3.83-4.26-2.55-7.51-6.13-9.76-10.72-2.25-4.59-3.37-9.93-3.37-16.02v-1.55c0-5.95,1.12-11.22,3.35-15.81,2.23-4.59,5.43-8.21,9.59-10.85,4.16-2.64,9.13-3.96,14.91-3.96,4.05,0,7.8.6,11.26,1.8,3.46,1.2,6.48,2.89,9.05,5.07v14.07h-8.04l-1.09-9.42c-.92-.67-1.94-1.24-3.06-1.72-1.12-.48-2.34-.84-3.66-1.09-1.33-.25-2.77-.37-4.34-.37-3.66,0-6.79.92-9.4,2.76-2.61,1.84-4.6,4.43-5.97,7.75-1.37,3.32-2.05,7.22-2.05,11.68v1.63c0,4.64.72,8.62,2.18,11.96,1.45,3.34,3.54,5.9,6.26,7.69,2.72,1.79,5.98,2.68,9.78,2.68,1.84,0,3.67-.22,5.47-.65,1.8-.43,3.38-1,4.75-1.7l1.13-8.54h7.95v13.99c-2.34,1.53-5.21,2.78-8.61,3.73-3.39.95-7.04,1.42-10.95,1.42Z"/>
    <path class="cls-1" d="M182.64,306.51c-4.36,0-8.1-.98-11.22-2.93-3.13-1.95-5.53-4.67-7.21-8.14s-2.51-7.48-2.51-12v-.88c0-4.5.84-8.47,2.51-11.94,1.68-3.46,4.08-6.18,7.21-8.17,3.13-1.98,6.84-2.97,11.14-2.97s8.1.98,11.22,2.95c3.13,1.97,5.53,4.69,7.2,8.15,1.68,3.46,2.51,7.45,2.51,11.98v.88c0,4.52-.84,8.53-2.51,12s-4.07,6.19-7.18,8.14c-3.11,1.96-6.83,2.93-11.16,2.93ZM182.64,298.39c2.35,0,4.28-.64,5.8-1.91,1.52-1.27,2.66-3.03,3.42-5.28.75-2.25,1.13-4.84,1.13-7.77v-.88c0-2.9-.38-5.47-1.13-7.71-.75-2.23-1.9-3.99-3.43-5.28-1.54-1.28-3.49-1.92-5.86-1.92s-4.25.64-5.78,1.92c-1.53,1.29-2.67,3.04-3.41,5.28-.74,2.23-1.11,4.8-1.11,7.71v.88c0,2.93.37,5.52,1.11,7.77.74,2.25,1.88,4.01,3.43,5.28,1.55,1.27,3.5,1.91,5.84,1.91Z"/>
    <path class="cls-1" d="M214.14,283.77v-8.17h22.28v8.17h-22.28Z"/>
    <path class="cls-1" d="M267.53,306.51c-4.25,0-7.92-.97-11.04-2.91s-5.52-4.62-7.2-8.04c-1.69-3.42-2.53-7.36-2.53-11.83v-1.47c0-4.38.84-8.29,2.51-11.73s4.07-6.14,7.18-8.1c3.11-1.97,6.79-2.95,11.04-2.95,3.88,0,7.26.62,10.14,1.86s5.23,2.79,7.08,4.63l.04,12.1h-8.04l-1.55-8c-.78-.81-1.77-1.46-2.98-1.95-1.2-.49-2.51-.73-3.94-.73-2.32,0-4.29.63-5.93,1.88-1.63,1.26-2.88,2.99-3.72,5.22-.85,2.22-1.28,4.81-1.28,7.77v1.47c0,3.18.43,5.86,1.3,8.04.87,2.18,2.07,3.83,3.62,4.94,1.55,1.12,3.33,1.68,5.34,1.68,2.43,0,4.4-.66,5.93-1.97,1.52-1.31,2.52-3.13,2.99-5.44h9.13l.12.25c-.33,2.96-1.21,5.59-2.62,7.89-1.41,2.31-3.39,4.11-5.95,5.42-2.55,1.31-5.77,1.97-9.65,1.97Z"/>
    <path class="cls-1" d="M293.84,305.63v-6.45l6.28-1.26v-29.86l-6.62-1.26v-6.49h16.33l.55,5.7.08.92c1.2-2.4,2.67-4.24,4.42-5.53,1.75-1.28,3.79-1.92,6.14-1.92.78,0,1.61.07,2.49.21s1.6.29,2.16.46l-1.22,9.76-5.91-.34c-1.93-.11-3.51.27-4.75,1.13-1.24.86-2.28,2.07-3.12,3.6v23.62l6.28,1.26v6.45h-23.12Z"/>
    <path class="cls-1" d="M352.05,306.51c-4.27,0-7.99-.95-11.16-2.87s-5.63-4.56-7.37-7.94c-1.75-3.38-2.62-7.24-2.62-11.6v-1.76c0-4.41.86-8.34,2.58-11.79,1.72-3.45,4.08-6.16,7.1-8.13,3.02-1.97,6.45-2.95,10.3-2.95,4.11,0,7.55.82,10.33,2.47,2.78,1.65,4.88,3.99,6.3,7.02,1.43,3.03,2.14,6.67,2.14,10.91v6.03h-27.81l-.08.21c.11,2.37.61,4.48,1.49,6.32.88,1.84,2.14,3.29,3.77,4.35,1.63,1.06,3.62,1.59,5.97,1.59,2.46,0,4.69-.34,6.7-1.01,2.01-.67,3.87-1.62,5.57-2.85l3.31,6.62c-1.79,1.51-4.06,2.78-6.83,3.81-2.76,1.03-5.99,1.55-9.67,1.55ZM342,278.49h17.55v-1.09c0-1.98-.3-3.72-.9-5.22-.6-1.49-1.54-2.66-2.81-3.5-1.27-.84-2.88-1.25-4.84-1.25-1.7,0-3.2.47-4.48,1.42-1.29.95-2.31,2.24-3.08,3.87s-1.29,3.48-1.57,5.55l.13.21Z"/>
    <path class="cls-1" d="M392.55,306.51c-4.61,0-8.19-1.19-10.76-3.56-2.57-2.37-3.86-5.64-3.86-9.8,0-2.85.78-5.35,2.35-7.5,1.56-2.15,3.85-3.83,6.87-5.05s6.67-1.82,10.97-1.82h6.91v-3.81c0-2.4-.72-4.31-2.16-5.74-1.44-1.43-3.53-2.14-6.26-2.14-1.56,0-2.94.19-4.15.56-1.2.38-2.27.92-3.23,1.61l-.96,6.12h-7.75l-.08-11.18c2.23-1.45,4.72-2.6,7.46-3.46,2.74-.85,5.78-1.28,9.13-1.28,5.75,0,10.28,1.35,13.59,4.04,3.31,2.7,4.96,6.55,4.96,11.58v19.98c0,.61,0,1.21.02,1.8.02.59.05,1.16.11,1.72l4.61.59v6.45h-13.78c-.28-.98-.54-1.92-.77-2.85-.24-.92-.41-1.84-.52-2.76-1.51,1.9-3.33,3.46-5.47,4.67-2.14,1.22-4.55,1.82-7.22,1.82ZM394.93,298.34c2.12,0,4.11-.5,5.95-1.49,1.84-.99,3.23-2.24,4.15-3.75v-7.58h-7.03c-3.16,0-5.54.73-7.14,2.2-1.6,1.46-2.41,3.18-2.41,5.13,0,1.76.56,3.11,1.68,4.06,1.12.95,2.72,1.42,4.82,1.42Z"/>
    <path class="cls-1" d="M443.39,306.43c-3.85,0-6.85-1.08-9-3.24-2.15-2.16-3.23-5.62-3.23-10.37v-24.96h-6.62v-7.54h6.62v-11.01h10.51v11.01h8.96v7.54h-8.96v24.96c0,1.92.4,3.33,1.19,4.21.8.88,1.87,1.32,3.24,1.32.78,0,1.65-.07,2.62-.21.96-.14,1.74-.28,2.32-.42l1.09,7.41c-1.23.36-2.63.67-4.21.92-1.58.25-3.09.37-4.55.37Z"/>
    <path class="cls-1" d="M479.03,306.51c-4.27,0-7.99-.95-11.16-2.87s-5.63-4.56-7.37-7.94c-1.75-3.38-2.62-7.24-2.62-11.6v-1.76c0-4.41.86-8.34,2.58-11.79,1.72-3.45,4.08-6.16,7.1-8.13,3.02-1.97,6.45-2.95,10.3-2.95,4.11,0,7.55.82,10.33,2.47,2.78,1.65,4.88,3.99,6.3,7.02,1.43,3.03,2.14,6.67,2.14,10.91v6.03h-27.81l-.08.21c.11,2.37.61,4.48,1.49,6.32s2.14,3.29,3.77,4.35c1.63,1.06,3.62,1.59,5.97,1.59,2.46,0,4.69-.34,6.7-1.01,2.01-.67,3.87-1.62,5.57-2.85l3.31,6.62c-1.79,1.51-4.06,2.78-6.83,3.81-2.76,1.03-5.99,1.55-9.67,1.55ZM468.98,278.49h17.55v-1.09c0-1.98-.3-3.72-.9-5.22-.6-1.49-1.54-2.66-2.81-3.5-1.27-.84-2.88-1.25-4.84-1.25-1.7,0-3.2.47-4.48,1.42-1.29.95-2.31,2.24-3.08,3.87s-1.29,3.48-1.57,5.55l.13.21Z"/>
    <path class="cls-1" d="M120.36,420.63l-11.14-37.99-5.32-.84v-6.49h20.57v6.49l-5.11.92,5.07,19.68,1.05,4.27h.25l1.47-4.27,9.51-27.1h7.66l9.17,27.27,1.55,4.82h.25l1.47-4.82,5.49-19.85-5.45-.92v-6.49h20.15v6.49l-5.19.88-11.6,37.95h-9.26l-8.67-24.46-1.76-5.95h-.25l-1.76,5.95-8.88,24.46h-9.26Z"/>
    <path class="cls-1" d="M182.73,420.63v-6.45l6.28-1.26v-29.86l-6.66-1.26v-6.49h17.21v37.61l6.24,1.26v6.45h-23.07ZM188.59,365.05v-9.76h10.97v9.76h-10.97Z"/>
    <path class="cls-1" d="M229.34,421.42c-3.85,0-6.85-1.08-9-3.24-2.15-2.16-3.23-5.62-3.23-10.37v-24.96h-6.62v-7.54h6.62v-11.01h10.51v11.01h8.96v7.54h-8.96v24.96c0,1.92.4,3.33,1.19,4.21.8.88,1.87,1.32,3.24,1.32.78,0,1.65-.07,2.62-.21s1.74-.28,2.32-.42l1.09,7.41c-1.23.36-2.63.67-4.21.92-1.58.25-3.09.37-4.55.37Z"/>
    <path class="cls-1" d="M243.87,420.63v-6.45l6.28-1.26v-49.88l-6.66-1.25v-6.49h17.17v25.89c1.48-2.12,3.31-3.77,5.49-4.94,2.18-1.17,4.64-1.76,7.37-1.76,4.66,0,8.33,1.48,11,4.46,2.66,2.97,4,7.56,4,13.76v20.23l6.28,1.26v6.45h-22.74v-6.45l5.95-1.26v-20.31c0-3.46-.7-5.96-2.1-7.5-1.39-1.53-3.45-2.31-6.15-2.31-1.93,0-3.67.43-5.22,1.28s-2.84,2.05-3.87,3.58v25.26l5.95,1.26v6.45h-22.74Z"/>
    <path class="cls-1" d="M343.59,421.51c-4.86,0-8.65-1.54-11.37-4.63-2.72-3.09-4.08-7.88-4.08-14.39v-19.43l-5.11-1.26v-6.49h15.67v27.27c0,3.91.62,6.65,1.86,8.23,1.24,1.58,3.16,2.36,5.76,2.36,2.29,0,4.24-.45,5.84-1.36s2.88-2.2,3.83-3.87v-24.88l-5.7-1.26v-6.49h16.25v37.61l5.36,1.26v6.45h-14.7l-.71-6.15c-1.43,2.26-3.23,4-5.42,5.21-2.19,1.22-4.69,1.82-7.47,1.82Z"/>
    <path class="cls-1" d="M397.62,421.51c-3.24,0-6.26-.31-9.07-.94-2.8-.63-5.62-1.56-8.44-2.79l-.12-11.98h7.58l1.59,6.54c1.2.53,2.44.94,3.71,1.24s2.69.44,4.25.44c3.02,0,5.14-.53,6.39-1.59,1.24-1.06,1.87-2.37,1.87-3.94s-.65-2.8-1.95-3.87c-1.3-1.08-3.78-2-7.44-2.79-5.42-1.17-9.4-2.88-11.96-5.13-2.55-2.25-3.83-5.17-3.83-8.78,0-2.48.66-4.73,1.99-6.74,1.33-2.01,3.28-3.62,5.86-4.84,2.58-1.21,5.76-1.82,9.53-1.82,3.43,0,6.48.36,9.15,1.07,2.67.71,4.94,1.66,6.81,2.83l.25,11.52h-7.5l-1.3-5.99c-.87-.61-1.87-1.09-3.02-1.43-1.14-.33-2.46-.5-3.94-.5-2.32,0-4.15.51-5.49,1.53-1.34,1.02-2.01,2.3-2.01,3.83,0,.89.22,1.7.65,2.43.43.72,1.27,1.39,2.51,1.99,1.24.6,3.06,1.18,5.47,1.74,5.89,1.37,10.11,3.15,12.65,5.36,2.54,2.21,3.81,5.13,3.81,8.75,0,4.05-1.48,7.37-4.44,9.97-2.96,2.6-7.48,3.89-13.57,3.89Z"/>
    <path class="cls-1" d="M426.01,400.02v-40.38h10.55v40.38h-10.55ZM426.01,420.63v-9.8h10.55v9.8h-10.55Z"/>
  </g>
  <g>
    <polygon class="cls-1" points="102.19 103.55 102.19 111.39 128.41 121.65 102.19 132.09 102.19 139.97 136.55 124.74 136.55 118.75 102.19 103.55 102.19 103.55"/>
    <polygon class="cls-1" points="183.75 143.47 136.55 143.47 136.55 149.66 183.75 149.66 183.75 143.47 183.75 143.47"/>
  </g>
</svg>