<?xml version="1.0" encoding="UTF-8"?>
<svg id="content" xmlns="http://www.w3.org/2000/svg" viewBox="0 0 750 525">
  <defs>
    <style>
      .cls-1, .cls-2 {
        font-family: ChironHeiHK-Medium-B5pc-H, 'Chiron Hei HK';
        font-size: 14px;
        font-weight: 500;
      }

      .cls-1, .cls-3 {
        fill: #0f1923;
      }

      .cls-2, .cls-4 {
        fill: #6450dc;
      }

      .cls-4, .cls-3 {
        stroke-width: 0px;
      }
    </style>
  </defs>
  <text class="cls-2" transform="translate(199.48 81.48)"><tspan x="0" y="0">開放原始碼</tspan></text>
  <text class="cls-2" transform="translate(410.21 128.14)"><tspan x="0" y="0">開放資料</tspan></text>
  <text class="cls-1" transform="translate(410.21 419.97)"><tspan x="0" y="0">數位人權</tspan></text>
  <text class="cls-1" transform="translate(187.78 456.47)"><tspan x="0" y="0">網路自由</tspan></text>
  <text class="cls-2" transform="translate(479.61 269.48)"><tspan x="0" y="0">開放政府</tspan></text>
  <g>
    <polygon class="cls-4" points="312.18 260.64 312.18 267.06 434.91 270.27 434.91 257.43 312.18 260.64"/>
    <polygon class="cls-4" points="381.51 146.34 371.47 138.33 297.46 236.29 302.47 240.29 381.51 146.34"/>
    <polygon class="cls-4" points="275.53 231.12 251.35 110.75 238.83 113.61 269.27 232.55 275.53 231.12"/>
    <polygon class="cls-3" points="297.46 291.42 371.47 389.37 381.51 381.37 302.47 287.41 297.46 291.42"/>
    <polygon class="cls-3" points="238.83 414.1 251.35 416.95 275.53 296.58 269.27 295.15 238.83 414.1"/>
    <polygon class="cls-4" points="147.66 213.45 252.34 263.85 147.66 314.25 147.66 340.38 279.33 276.97 279.33 250.73 147.66 187.32 147.66 213.45"/>
  </g>
</svg>