<?xml version="1.0" encoding="UTF-8"?>
<svg id="content" xmlns="http://www.w3.org/2000/svg" viewBox="0 0 200 200">
  <defs>
    <style>
      .cls-1 {
        fill: #6450dc;
        stroke-width: 0px;
      }
    </style>
  </defs>
  <path class="cls-1" d="M172.62,126.21c.02-.06.04-.13.06-.19,2.92-8.14,4.52-16.89,4.52-26.02,0-42.57-34.63-77.21-77.21-77.21S22.79,57.43,22.79,100c0,9.12,1.6,17.88,4.52,26.01.02.07.04.13.07.2,10.76,29.71,39.25,51,72.62,51s61.86-21.29,72.62-51ZM132.19,144.18c-.48-1.4-1.38-2.61-2.59-3.43,2.02-7.2,3.51-15.24,4.36-23.86,17.35-2.72,31.94-7.52,38.76-14.04-.35,9.14-2.39,17.85-5.82,25.83-5.4,6.65-18.18,12.26-34.7,15.5ZM100,172.17c-8.46,0-16.23-8.73-21.8-22.51,6.86.82,14.18,1.26,21.8,1.26,7,0,13.74-.38,20.11-1.08.3.49.65.94,1.06,1.34-5.52,12.9-13.03,20.98-21.17,20.98ZM33.1,128.68c-3.43-7.98-5.47-16.69-5.82-25.83,6.12,5.85,18.5,10.32,33.51,13.14.47,2.93,2.82,5.2,5.78,5.58,1.09,8.5,2.82,16.35,5.08,23.31-18.37-3.09-32.73-9.05-38.54-16.2ZM65.66,87.43c-.29,4.08-.45,8.28-.45,12.57,0,2.88.07,5.72.21,8.51-1.93.6-3.49,2.02-4.24,3.87-19.2-3.61-31.55-9.7-33.89-15.81.39-8.3,2.18-16.24,5.13-23.59,4.5,5.88,15.76,11.32,33.24,14.45ZM100,27.84c13.52,0,25.32,22.3,29.1,51.95-1.57.95-2.73,2.51-3.11,4.36-7.81,1.02-16.55,1.61-25.99,1.61-10.9,0-20.86-.79-29.54-2.11,3.22-31.55,15.44-55.81,29.54-55.81ZM167.57,72.99c2.95,7.35,4.75,15.29,5.13,23.59-2.52,6.58-16.64,13.13-38.42,16.6.32-4.27.5-8.67.5-13.17,0-2.73-.06-5.43-.18-8.08,2.43-.77,4.25-2.86,4.62-5.45,14.71-3.21,24.29-8.18,28.35-13.49ZM100,90.17c9.88,0,18.76-.56,26.62-1.56.75,1.45,2,2.59,3.54,3.19.14,2.7.21,5.43.21,8.2,0,4.72-.21,9.34-.59,13.83-8.88,1.18-18.89,1.86-29.78,1.86-9.34,0-18.02-.5-25.91-1.39-.24-2.59-1.91-4.74-4.23-5.65-.15-2.84-.24-5.73-.24-8.65,0-4.02.15-7.98.44-11.85,8.65,1.28,18.65,2.02,29.94,2.02ZM70.95,120.63c1.06-.66,1.92-1.6,2.48-2.73,8.57,1.01,17.61,1.54,26.57,1.54,9.97,0,20.02-.66,29.42-1.9-.87,7.95-2.32,15.42-4.22,22.12-3.35.32-5.97,3.07-6.07,6.48-6.11.66-12.52,1.03-19.13,1.03-8.13,0-15.99-.54-23.32-1.53-2.56-7.32-4.53-15.81-5.73-25.01ZM165.32,67.92c-.93,5.2-10.96,10.63-27.01,14.11-1.03-1.69-2.78-2.88-4.83-3.15-2.96-23.54-10.79-42.18-21.06-50.59,23.26,4.02,42.78,19.11,52.9,39.63ZM87.57,28.29c-10.85,8.88-18.98,29.18-21.52,54.61-18.59-3.4-30.37-9.33-31.38-14.98,10.12-20.53,29.64-35.61,52.9-39.63ZM37.48,137.23c8.24,5.32,20.66,9.45,35.57,11.73,3.79,10.17,8.78,18.06,14.52,22.76-21.27-3.68-39.41-16.6-50.1-34.48ZM112.43,171.71c4.95-4.05,9.33-10.48,12.88-18.68.18.01.36.05.54.05,3.13,0,5.74-2.15,6.5-5.05,12.52-2.39,22.95-6.14,30.18-10.81-10.69,17.88-28.83,30.81-50.1,34.48Z"/>
  <path class="cls-1" d="M168.02,42.97l3.38-2.84c-2.5-2.98-5.21-5.83-8.05-8.46l-3,3.24c2.71,2.51,5.29,5.23,7.68,8.06Z"/>
  <path class="cls-1" d="M184.04,59.73c-1.68-3.5-3.6-6.93-5.71-10.19l-3.71,2.39c2,3.11,3.83,6.37,5.44,9.71l3.98-1.91Z"/>
  <path class="cls-1" d="M191.41,81.87c-.75-3.81-1.76-7.61-2.98-11.3l-4.19,1.39c1.17,3.51,2.13,7.13,2.84,10.76l4.33-.85Z"/>
  <path class="cls-1" d="M192.95,93.45l-4.41.31c.14,2.07.22,4.17.22,6.25,0,1.64-.05,3.27-.13,4.89l4.41.24c.09-1.7.14-3.41.14-5.12,0-2.17-.08-4.38-.23-6.55Z"/>
  <path class="cls-1" d="M77.8,190.52c3.76.92,7.63,1.61,11.51,2.05l.5-4.38c-3.69-.42-7.37-1.08-10.96-1.96l-1.05,4.29Z"/>
  <path class="cls-1" d="M100.93,188.76l.04,4.41c3.9-.04,7.82-.32,11.65-.84l-.59-4.38c-3.65.5-7.38.77-11.1.8Z"/>
  <path class="cls-1" d="M175.36,146.92l3.75,2.34c2.06-3.31,3.93-6.77,5.55-10.28l-4.01-1.85c-1.54,3.35-3.32,6.65-5.29,9.8Z"/>
  <path class="cls-1" d="M122.94,185.77l1.14,4.26c3.75-1,7.48-2.25,11.08-3.72l-1.67-4.09c-3.43,1.4-6.98,2.59-10.55,3.54Z"/>
  <path class="cls-1" d="M143.5,177.39l2.17,3.85c3.38-1.9,6.67-4.04,9.79-6.36l-2.63-3.54c-2.98,2.21-6.11,4.24-9.33,6.06Z"/>
  <path class="cls-1" d="M161.34,164.16l3.05,3.19c2.81-2.69,5.47-5.57,7.92-8.58l-3.42-2.78c-2.34,2.87-4.88,5.62-7.55,8.18Z"/>
  <path class="cls-1" d="M184.66,126.74l4.21,1.33c1.17-3.7,2.11-7.52,2.81-11.34l-4.35-.79c-.66,3.64-1.56,7.28-2.67,10.8Z"/>
  <path class="cls-1" d="M60.29,184.31c2.03.96,4.12,1.86,6.23,2.67l1.59-4.12c-2.01-.77-4-1.63-5.94-2.54l-1.88,3.99Z"/>
  <circle class="cls-1" cx="149.48" cy="22.79" r="6.74"/>
  <path class="cls-1" d="M42.18,164.47c-.92,0-1.8.19-2.6.52-18.07-16.78-28.33-40.14-28.33-64.99C11.24,51.06,51.06,11.24,100,11.24c10.18,0,20.15,1.71,29.65,5.07l1.47-4.16c-9.97-3.53-20.44-5.33-31.12-5.33C48.62,6.83,6.83,48.63,6.83,100c0,25.96,10.68,50.37,29.48,67.97-.53.96-.86,2.06-.86,3.24,0,3.72,3.02,6.74,6.74,6.74s6.74-3.02,6.74-6.74-3.02-6.74-6.74-6.74Z"/>
</svg>