<?xml version="1.0" encoding="UTF-8"?>
<svg id="content" xmlns="http://www.w3.org/2000/svg" viewBox="0 0 1280 2400">
  <defs>
    <style>
      .cls-1 {
        fill: #d7dcf0;
        stroke-width: 0px;
      }
    </style>
  </defs>
  <g>
    <rect class="cls-1" x="75.29" y="49.92" width="75.33" height="9.87" transform="translate(225.91 109.71) rotate(180)"/>
    <rect class="cls-1" x="0" y="118.99" width="75.33" height="9.87" transform="translate(75.33 247.85) rotate(180)"/>
    <rect class="cls-1" x="150.6" y="276.98" width="75.33" height="9.87" transform="translate(376.53 563.83) rotate(180)"/>
    <rect class="cls-1" x="225.88" y="286.85" width="75.33" height="9.87" transform="translate(527.08 583.57) rotate(180)"/>
    <rect class="cls-1" x="301.17" y="118.99" width="75.33" height="9.87" transform="translate(677.66 247.85) rotate(180)"/>
    <rect class="cls-1" x="150.6" y="316.47" width="75.33" height="9.87" transform="translate(376.53 642.82) rotate(180)"/>
    <rect class="cls-1" x="225.88" y="336.22" width="75.33" height="9.87" transform="translate(527.08 682.32) rotate(180)"/>
    <rect class="cls-1" x="225.88" y="395.47" width="75.33" height="9.87" transform="translate(527.08 800.81) rotate(180)"/>
    <rect class="cls-1" x="301.17" y="434.97" width="75.33" height="9.87" transform="translate(677.66 879.81) rotate(180)"/>
    <rect class="cls-1" x="376.46" y="385.59" width="75.33" height="9.87" transform="translate(828.25 781.06) rotate(180)"/>
    <rect class="cls-1" x="301.17" y="346.1" width="75.33" height="9.87" transform="translate(677.66 702.07) rotate(180)"/>
    <rect class="cls-1" x="301.17" y="296.72" width="75.33" height="9.87" transform="translate(677.66 603.32) rotate(180)"/>
    <rect class="cls-1" x="376.46" y="276.98" width="75.33" height="9.87" transform="translate(828.25 563.83) rotate(180)"/>
    <rect class="cls-1" x="75.29" y="296.72" width="75.33" height="9.87" transform="translate(225.91 603.32) rotate(180)"/>
    <rect class="cls-1" x="75.48" y="267.1" width="75.33" height="9.87" transform="translate(226.29 544.08) rotate(180)"/>
    <rect class="cls-1" x="225.88" y="99.05" width="75.33" height="10.24" transform="translate(527.08 208.35) rotate(180)"/>
    <rect class="cls-1" x="150.58" y="89.36" width="75.33" height="9.87" transform="translate(376.5 188.6) rotate(180)"/>
    <rect class="cls-1" x="150.58" y="39.99" width="75.33" height="9.87" transform="translate(376.5 89.86) rotate(180)"/>
    <rect class="cls-1" x="376.46" y=".49" width="75.33" height="9.87" transform="translate(828.25 10.86) rotate(180)"/>
    <rect class="cls-1" x="451.75" y="79.49" width="75.33" height="9.87" transform="translate(978.83 168.85) rotate(180)"/>
    <rect class="cls-1" x="602.34" y="20.3" width="75.33" height="9.87" transform="translate(1280 50.47) rotate(180)"/>
    <rect class="cls-1" x="527.05" y="385.59" width="75.33" height="9.87" transform="translate(1129.42 781.06) rotate(180)"/>
    <rect class="cls-1" x="451.75" y="296.72" width="75.33" height="9.87" transform="translate(978.83 603.32) rotate(180)"/>
    <rect class="cls-1" x="828.18" y="666.98" width="75.33" height="9.87" transform="translate(1731.68 1343.84) rotate(180)"/>
    <rect class="cls-1" x="0" y="247.35" width="75.33" height="9.87" transform="translate(75.33 504.58) rotate(180)"/>
    <rect class="cls-1" x="1204.65" y="597.92" width="75.33" height="9.87" transform="translate(2484.64 1205.72) rotate(180)"/>
    <rect class="cls-1" x="1129.36" y="1200.14" width="75.33" height="9.87"/>
    <rect class="cls-1" x="1204.65" y="1131.08" width="75.33" height="9.87"/>
    <rect class="cls-1" x="1054.05" y="973.09" width="75.33" height="9.87"/>
    <rect class="cls-1" x="978.78" y="963.21" width="75.33" height="9.87"/>
    <rect class="cls-1" x="903.49" y="1131.08" width="75.33" height="9.87"/>
    <rect class="cls-1" x="1054.05" y="933.59" width="75.33" height="9.87"/>
    <rect class="cls-1" x="978.78" y="913.84" width="75.33" height="9.87"/>
    <rect class="cls-1" x="978.78" y="854.59" width="75.33" height="9.87"/>
    <rect class="cls-1" x="903.49" y="815.1" width="75.33" height="9.87"/>
    <rect class="cls-1" x="828.19" y="864.47" width="75.33" height="9.87"/>
    <rect class="cls-1" x="903.49" y="903.97" width="75.33" height="9.87"/>
    <rect class="cls-1" x="903.49" y="953.34" width="75.33" height="9.87"/>
    <rect class="cls-1" x="828.19" y="973.09" width="75.33" height="9.87"/>
    <rect class="cls-1" x="1129.36" y="953.34" width="75.33" height="9.87"/>
    <rect class="cls-1" x="1129.17" y="982.96" width="75.33" height="9.87"/>
    <rect class="cls-1" x="978.78" y="1150.64" width="75.33" height="10.24"/>
    <rect class="cls-1" x="1054.07" y="1160.7" width="75.33" height="9.87"/>
    <rect class="cls-1" x="1054.07" y="1210.07" width="75.33" height="9.87"/>
    <rect class="cls-1" x="827.22" y="1249.57" width="75.33" height="9.87"/>
    <rect class="cls-1" x="902.51" y="1259.44" width="75.33" height="9.87"/>
    <rect class="cls-1" x="977.8" y="1269.32" width="75.33" height="9.87"/>
    <rect class="cls-1" x="752.9" y="1170.57" width="75.33" height="9.87"/>
    <rect class="cls-1" x="602.32" y="1229.77" width="75.33" height="9.87"/>
    <rect class="cls-1" x="677.61" y="864.47" width="75.33" height="9.87"/>
    <rect class="cls-1" x="752.9" y="953.34" width="75.33" height="9.87"/>
    <rect class="cls-1" x="451.75" y="815.1" width="75.33" height="9.87"/>
    <rect class="cls-1" x="1204.65" y="1002.71" width="75.33" height="9.87"/>
    <rect class="cls-1" x="75.27" y="884.15" width="75.33" height="9.87"/>
    <rect class="cls-1" x="75.15" y="1328.16" width="75.33" height="9.87" transform="translate(225.62 2666.19) rotate(180)"/>
    <rect class="cls-1" x="-.14" y="1397.23" width="75.33" height="9.87" transform="translate(75.04 2804.33) rotate(180)"/>
    <rect class="cls-1" x="150.46" y="1555.22" width="75.33" height="9.87" transform="translate(376.24 3120.31) rotate(180)"/>
    <rect class="cls-1" x="225.73" y="1565.09" width="75.33" height="9.87" transform="translate(526.79 3140.06) rotate(180)"/>
    <rect class="cls-1" x="301.02" y="1397.23" width="75.33" height="9.87" transform="translate(677.37 2804.33) rotate(180)"/>
    <rect class="cls-1" x="150.46" y="1594.71" width="75.33" height="9.87" transform="translate(376.24 3199.3) rotate(180)"/>
    <rect class="cls-1" x="225.73" y="1614.46" width="75.33" height="9.87" transform="translate(526.79 3238.8) rotate(180)"/>
    <rect class="cls-1" x="225.73" y="1673.71" width="75.33" height="9.87" transform="translate(526.79 3357.29) rotate(180)"/>
    <rect class="cls-1" x="301.02" y="1713.21" width="75.33" height="9.87" transform="translate(677.37 3436.29) rotate(180)"/>
    <rect class="cls-1" x="376.32" y="1663.83" width="75.33" height="9.87" transform="translate(827.96 3337.54) rotate(180)"/>
    <rect class="cls-1" x="301.02" y="1624.34" width="75.33" height="9.87" transform="translate(677.37 3258.55) rotate(180)"/>
    <rect class="cls-1" x="301.02" y="1574.97" width="75.33" height="9.87" transform="translate(677.37 3159.8) rotate(180)"/>
    <rect class="cls-1" x="376.32" y="1555.22" width="75.33" height="9.87" transform="translate(827.96 3120.31) rotate(180)"/>
    <rect class="cls-1" x="75.15" y="1574.97" width="75.33" height="9.87" transform="translate(225.62 3159.8) rotate(180)"/>
    <rect class="cls-1" x="75.34" y="1545.34" width="75.33" height="9.87" transform="translate(226 3100.56) rotate(180)"/>
    <rect class="cls-1" x="225.73" y="1377.29" width="75.33" height="10.24" transform="translate(526.79 2764.83) rotate(180)"/>
    <rect class="cls-1" x="150.44" y="1367.6" width="75.33" height="9.87" transform="translate(376.21 2745.08) rotate(180)"/>
    <rect class="cls-1" x="150.44" y="1318.23" width="75.33" height="9.87" transform="translate(376.21 2646.34) rotate(180)"/>
    <rect class="cls-1" x="451.61" y="1357.73" width="75.33" height="9.87" transform="translate(978.54 2725.33) rotate(180)"/>
    <rect class="cls-1" x="526.9" y="1663.83" width="75.33" height="9.87" transform="translate(1129.13 3337.54) rotate(180)"/>
    <rect class="cls-1" x="451.61" y="1574.97" width="75.33" height="9.87" transform="translate(978.54 3159.8) rotate(180)"/>
    <rect class="cls-1" x="828.03" y="1945.22" width="75.33" height="9.87" transform="translate(1731.39 3900.32) rotate(180)"/>
    <rect class="cls-1" x="-.14" y="1525.59" width="75.33" height="9.87" transform="translate(75.04 3061.06) rotate(180)"/>
    <rect class="cls-1" x="1204.51" y="1876.16" width="75.33" height="9.87" transform="translate(2484.35 3762.2) rotate(180)"/>
    <rect class="cls-1" x="1204.51" y="2310.74" width="75.33" height="9.87"/>
    <rect class="cls-1" x="978.36" y="2310.74" width="75.33" height="9.87"/>
    <rect class="cls-1" x="1129.16" y="2340.45" width="75.33" height="9.87"/>
    <rect class="cls-1" x="1204.51" y="2350.35" width="75.33" height="9.87"/>
    <rect class="cls-1" x="1053.91" y="2251.33" width="75.33" height="9.87"/>
    <rect class="cls-1" x="978.63" y="2241.45" width="75.33" height="9.87"/>
    <rect class="cls-1" x="1053.91" y="2211.83" width="75.33" height="9.87"/>
    <rect class="cls-1" x="978.63" y="2192.08" width="75.33" height="9.87"/>
    <rect class="cls-1" x="978.63" y="2132.84" width="75.33" height="9.87"/>
    <rect class="cls-1" x="903.34" y="2093.34" width="75.33" height="9.87"/>
    <rect class="cls-1" x="828.05" y="2142.71" width="75.33" height="9.87"/>
    <rect class="cls-1" x="903.34" y="2182.21" width="75.33" height="9.87"/>
    <rect class="cls-1" x="903.34" y="2231.58" width="75.33" height="9.87"/>
    <rect class="cls-1" x="828.05" y="2251.33" width="75.33" height="9.87"/>
    <rect class="cls-1" x="1129.22" y="2231.58" width="75.33" height="9.87"/>
    <rect class="cls-1" x="1129.03" y="2261.2" width="75.33" height="9.87"/>
    <rect class="cls-1" x="677.46" y="2142.71" width="75.33" height="9.87"/>
    <rect class="cls-1" x="752.76" y="2231.58" width="75.33" height="9.87"/>
    <rect class="cls-1" x="451.61" y="2093.34" width="75.33" height="9.87"/>
    <rect class="cls-1" x="75.13" y="2162.39" width="75.33" height="9.87"/>
  </g>
  <g>
    <rect class="cls-1" x="225.92" y="1022.34" width="75.33" height="9.87" transform="translate(527.17 2054.55) rotate(180)"/>
    <rect class="cls-1" x="225.92" y="1071.83" width="75.33" height="9.87" transform="translate(527.17 2153.54) rotate(180)"/>
    <rect class="cls-1" x="301.21" y="1002.71" width="75.33" height="9.87" transform="translate(677.75 2015.3) rotate(180)"/>
    <rect class="cls-1" x="225.92" y="1032.34" width="75.33" height="9.87" transform="translate(527.17 2074.55) rotate(180)"/>
    <rect class="cls-1" x="225.92" y="1042.21" width="75.33" height="9.87" transform="translate(527.17 2094.3) rotate(180)"/>
    <rect class="cls-1" x="225.92" y="1052.09" width="75.33" height="9.87" transform="translate(527.17 2114.04) rotate(180)"/>
    <rect class="cls-1" x="225.92" y="1061.96" width="75.33" height="9.87" transform="translate(527.17 2133.79) rotate(180)"/>
    <rect class="cls-1" x="225.92" y="1081.71" width="75.33" height="9.87" transform="translate(527.17 2173.29) rotate(180)"/>
    <rect class="cls-1" x="225.92" y="1091.58" width="75.33" height="9.87" transform="translate(527.17 2193.04) rotate(180)"/>
    <rect class="cls-1" x="225.92" y="1101.46" width="75.33" height="9.87" transform="translate(527.17 2212.79) rotate(180)"/>
    <rect class="cls-1" x="225.92" y="1131.08" width="75.33" height="9.87" transform="translate(527.17 2272.03) rotate(180)"/>
    <rect class="cls-1" x="225.92" y="1160.7" width="75.33" height="9.87" transform="translate(527.17 2331.27) rotate(180)"/>
    <rect class="cls-1" x="225.92" y="1190.32" width="75.33" height="9.87" transform="translate(527.17 2390.52) rotate(180)"/>
    <rect class="cls-1" x="225.92" y="1200.2" width="75.33" height="9.87" transform="translate(527.17 2410.27) rotate(180)"/>
    <rect class="cls-1" x="301.21" y="1219.94" width="75.33" height="9.87" transform="translate(677.75 2449.76) rotate(180)"/>
    <rect class="cls-1" x="301.21" y="992.84" width="75.33" height="9.87" transform="translate(677.75 1995.56) rotate(180)"/>
    <rect class="cls-1" x="376.5" y="1210.07" width="75.33" height="9.87" transform="translate(828.33 2430.01) rotate(180)"/>
    <rect class="cls-1" x="301.21" y="1229.82" width="75.33" height="9.87" transform="translate(677.75 2469.51) rotate(180)"/>
    <rect class="cls-1" x="602.37" y="1229.82" width="75.33" height="9.87" transform="translate(1280.07 2469.51) rotate(180)"/>
    <rect class="cls-1" x="225.92" y="1210.07" width="75.33" height="9.87" transform="translate(527.17 2430.01) rotate(180)"/>
    <rect class="cls-1" x="376.5" y="1170.57" width="75.33" height="9.87" transform="translate(828.33 2351.02) rotate(180)"/>
    <rect class="cls-1" x="376.5" y="1160.7" width="75.33" height="9.87" transform="translate(828.33 2331.27) rotate(180)"/>
    <rect class="cls-1" x="376.5" y="1150.83" width="75.33" height="9.87" transform="translate(828.33 2311.53) rotate(180)"/>
    <rect class="cls-1" x="376.5" y="1140.95" width="75.33" height="9.87" transform="translate(828.33 2291.78) rotate(180)"/>
    <rect class="cls-1" x="376.5" y="1131.08" width="75.33" height="9.87" transform="translate(828.33 2272.03) rotate(180)"/>
    <rect class="cls-1" x="376.5" y="1121.2" width="75.33" height="9.87" transform="translate(828.33 2252.28) rotate(180)"/>
    <rect class="cls-1" x="376.5" y="1111.33" width="75.33" height="9.87" transform="translate(828.33 2232.53) rotate(180)"/>
    <rect class="cls-1" x="376.5" y="1101.46" width="75.33" height="9.87" transform="translate(828.33 2212.79) rotate(180)"/>
    <rect class="cls-1" x="376.5" y="1091.58" width="75.33" height="9.87" transform="translate(828.33 2193.04) rotate(180)"/>
    <rect class="cls-1" x="376.5" y="1022.46" width="75.33" height="9.87" transform="translate(828.33 2054.8) rotate(180)"/>
    <rect class="cls-1" x="527.04" y="1022.46" width="75.33" height="9.87" transform="translate(1129.41 2054.8) rotate(180)"/>
    <rect class="cls-1" x="527.04" y="1052.09" width="75.33" height="9.87" transform="translate(1129.41 2114.04) rotate(180)"/>
    <rect class="cls-1" x="527.04" y="1042.21" width="75.33" height="9.87" transform="translate(1129.41 2094.3) rotate(180)"/>
    <rect class="cls-1" x="527.04" y="1101.46" width="75.33" height="9.87" transform="translate(1129.41 2212.79) rotate(180)"/>
    <rect class="cls-1" x="527.04" y="1150.83" width="75.33" height="9.87" transform="translate(1129.41 2311.53) rotate(180)"/>
    <rect class="cls-1" x="527.04" y="1081.71" width="75.33" height="9.87" transform="translate(1129.41 2173.29) rotate(180)"/>
    <rect class="cls-1" x="903.53" y="1131.08" width="75.33" height="9.87" transform="translate(1882.39 2272.03) rotate(180)"/>
    <rect class="cls-1" x="978.82" y="1131.08" width="75.33" height="9.87" transform="translate(2032.97 2272.03) rotate(180)"/>
    <rect class="cls-1" x="978.81" y="1022.46" width="75.33" height="9.87" transform="translate(2032.94 2054.8) rotate(180)"/>
    <rect class="cls-1" x="527.04" y="1111.33" width="75.33" height="9.87" transform="translate(1129.41 2232.53) rotate(180)"/>
    <rect class="cls-1" x="527.04" y="1121.2" width="75.33" height="9.87" transform="translate(1129.41 2252.28) rotate(180)"/>
    <rect class="cls-1" x="527.04" y="1131.08" width="75.33" height="9.87" transform="translate(1129.41 2272.03) rotate(180)"/>
    <rect class="cls-1" x="527.04" y="1180.45" width="75.33" height="9.87" transform="translate(1129.41 2370.77) rotate(180)"/>
    <rect class="cls-1" x="602.37" y="1219.94" width="75.33" height="9.87" transform="translate(1280.07 2449.76) rotate(180)"/>
    <rect class="cls-1" x="527.04" y="1200.2" width="75.33" height="9.87" transform="translate(1129.41 2410.27) rotate(180)"/>
    <rect class="cls-1" x="677.66" y="1210.07" width="75.33" height="9.87" transform="translate(1430.65 2430.01) rotate(180)"/>
    <rect class="cls-1" x="677.66" y="1012.59" width="75.33" height="9.87" transform="translate(1430.65 2035.05) rotate(180)"/>
    <rect class="cls-1" x="602.37" y="992.84" width="75.33" height="9.87" transform="translate(1280.07 1995.56) rotate(180)"/>
    <rect class="cls-1" x="828.24" y="1002.71" width="75.33" height="9.87" transform="translate(1731.81 2015.3) rotate(180)"/>
    <rect class="cls-1" x="828.24" y="992.84" width="75.33" height="9.87" transform="translate(1731.81 1995.56) rotate(180)"/>
    <rect class="cls-1" x="828.24" y="1012.59" width="75.33" height="9.87" transform="translate(1731.81 2035.05) rotate(180)"/>
    <rect class="cls-1" x="828.24" y="1022.46" width="75.33" height="9.87" transform="translate(1731.81 2054.8) rotate(180)"/>
    <rect class="cls-1" x="828.24" y="1042.21" width="75.33" height="9.87" transform="translate(1731.81 2094.3) rotate(180)"/>
    <rect class="cls-1" x="828.24" y="1052.09" width="75.33" height="9.87" transform="translate(1731.81 2114.04) rotate(180)"/>
    <rect class="cls-1" x="828.24" y="1091.58" width="75.33" height="9.87" transform="translate(1731.81 2193.04) rotate(180)"/>
    <rect class="cls-1" x="828.24" y="1081.71" width="75.33" height="9.87" transform="translate(1731.81 2173.29) rotate(180)"/>
    <rect class="cls-1" x="828.24" y="1101.46" width="75.33" height="9.87" transform="translate(1731.81 2212.79) rotate(180)"/>
    <rect class="cls-1" x="828.24" y="1121.2" width="75.33" height="9.87" transform="translate(1731.81 2252.28) rotate(180)"/>
    <rect class="cls-1" x="828.24" y="1131.08" width="75.33" height="9.87" transform="translate(1731.81 2272.03) rotate(180)"/>
    <rect class="cls-1" x="828.24" y="1140.95" width="75.33" height="9.87" transform="translate(1731.81 2291.78) rotate(180)"/>
    <rect class="cls-1" x="978.81" y="1140.95" width="75.33" height="9.87" transform="translate(2032.94 2291.78) rotate(180)"/>
    <rect class="cls-1" x="903.53" y="1121.2" width="75.33" height="9.87" transform="translate(1882.39 2252.28) rotate(180)"/>
    <rect class="cls-1" x="828.24" y="1160.7" width="75.33" height="9.87" transform="translate(1731.81 2331.27) rotate(180)"/>
    <rect class="cls-1" x="828.24" y="1190.32" width="75.33" height="9.87" transform="translate(1731.81 2390.52) rotate(180)"/>
    <rect class="cls-1" x="828.24" y="1200.2" width="75.33" height="9.87" transform="translate(1731.81 2410.27) rotate(180)"/>
    <rect class="cls-1" x="828.24" y="1210.07" width="75.33" height="9.87" transform="translate(1731.81 2430.01) rotate(180)"/>
    <rect class="cls-1" x="828.24" y="1219.94" width="75.33" height="9.87" transform="translate(1731.81 2449.76) rotate(180)"/>
    <rect class="cls-1" x="828.24" y="1229.82" width="75.33" height="9.87" transform="translate(1731.81 2469.51) rotate(180)"/>
    <rect class="cls-1" x="903.53" y="1002.71" width="75.33" height="9.87" transform="translate(1882.39 2015.3) rotate(180)"/>
    <rect class="cls-1" x="978.82" y="992.84" width="75.33" height="9.87" transform="translate(2032.97 1995.56) rotate(180)"/>
    <rect class="cls-1" x="978.82" y="1002.71" width="75.33" height="9.87" transform="translate(2032.97 2015.3) rotate(180)"/>
    <rect class="cls-1" x="903.53" y="1012.59" width="75.33" height="9.87" transform="translate(1882.39 2035.05) rotate(180)"/>
    <rect class="cls-1" x="602.37" y="1002.71" width="75.33" height="9.87" transform="translate(1280.07 2015.3) rotate(180)"/>
    <rect class="cls-1" x="376.5" y="1032.34" width="75.33" height="9.87" transform="translate(828.33 2074.55) rotate(180)"/>
    <rect class="cls-1" x="376.5" y="1052.09" width="75.33" height="9.87" transform="translate(828.33 2114.04) rotate(180)"/>
    <rect class="cls-1" x="376.5" y="1071.83" width="75.33" height="9.87" transform="translate(828.33 2153.54) rotate(180)"/>
    <rect class="cls-1" x="376.5" y="1180.45" width="75.33" height="9.87" transform="translate(828.33 2370.77) rotate(180)"/>
    <rect class="cls-1" x="1054.09" y="1229.82" width="75.33" height="9.87" transform="translate(2183.52 2469.51) rotate(180)"/>
  </g>
</svg>