<?xml version="1.0" encoding="UTF-8"?>
<svg id="content" xmlns="http://www.w3.org/2000/svg" viewBox="0 0 172.89 49.4">
  <defs>
    <style>
      .cls-1 {
        fill: #6450d2;
        stroke-width: 0px;
      }
    </style>
  </defs>
  <path class="cls-1" d="M9.52,21.19c-1.41,0-2.69-.26-3.85-.78-1.16-.52-2.17-1.25-3.02-2.19-.85-.94-1.5-2.05-1.96-3.32-.46-1.27-.69-2.65-.69-4.15v-.33c0-1.49.23-2.87.69-4.13.46-1.26,1.11-2.37,1.95-3.31.84-.94,1.85-1.68,3.01-2.2,1.16-.52,2.45-.78,3.85-.78s2.68.26,3.85.78c1.17.52,2.19,1.26,3.05,2.2.87.94,1.54,2.05,2.01,3.31.47,1.26.71,2.64.71,4.13v.33c0,1.5-.24,2.88-.71,4.15-.47,1.27-1.14,2.37-2,3.32-.86.94-1.88,1.67-3.05,2.19-1.17.52-2.45.78-3.85.78ZM9.52,17.72c1.1,0,2.03-.29,2.79-.88.76-.58,1.33-1.4,1.72-2.44.39-1.04.58-2.26.58-3.66v-.35c0-1.37-.2-2.57-.59-3.61-.39-1.04-.97-1.85-1.73-2.43-.76-.58-1.69-.88-2.79-.88s-2.06.29-2.8.87-1.28,1.39-1.64,2.42c-.36,1.03-.54,2.24-.54,3.63v.35c0,1.4.18,2.62.54,3.66.36,1.05.91,1.86,1.65,2.44.74.58,1.67.87,2.79.87Z"/>
  <path class="cls-1" d="M20.78,25.92v-2.01c0-.18.13-.33.31-.36l1.33-.2c.18-.03.31-.18.31-.36v-14.11c0-.18-.13-.33-.31-.36l-1.55-.21c-.18-.02-.31-.18-.31-.36v-2.01c0-.2.16-.36.36-.36h5.74c.19,0,.35.15.36.34l.08,1.15c0,.09.12.12.17.05.4-.54.87-.97,1.42-1.29.61-.35,1.36-.53,2.23-.53,1.22,0,2.26.33,3.13,1,.87.67,1.54,1.61,2.01,2.81s.7,2.6.7,4.21v.3c0,1.51-.23,2.83-.7,3.97-.47,1.14-1.14,2.02-2.02,2.65-.88.63-1.94.94-3.18.94-.79,0-1.49-.14-2.09-.43-.52-.25-.98-.61-1.38-1.07-.06-.07-.17-.03-.17.06v3.25c0,.18.13.33.31.36l1.25.2c.18.03.31.18.31.36v2.02c0,.2-.16.36-.36.36h-7.59c-.2,0-.36-.16-.36-.36ZM29.52,17.73c.98,0,1.68-.37,2.09-1.1.41-.74.62-1.74.62-3.01v-.3c0-.91-.09-1.7-.28-2.38-.19-.68-.48-1.21-.88-1.58-.4-.38-.93-.57-1.58-.57-.5,0-.94.11-1.33.33-.31.18-.58.43-.79.75-.1.15-.14.33-.14.5v5.89c0,.23.08.46.24.64.2.22.43.4.7.54.39.19.84.29,1.35.29Z"/>
  <path class="cls-1" d="M46.02,21.19c-1.48,0-2.77-.32-3.88-.97-1.1-.65-1.96-1.53-2.57-2.66-.61-1.13-.91-2.41-.91-3.84v-.55c0-1.53.28-2.89.83-4.07.56-1.19,1.36-2.12,2.4-2.79,1.05-.67,2.3-1.01,3.76-1,1.39,0,2.55.27,3.51.81.95.54,1.68,1.32,2.17,2.35.49,1.03.74,2.29.74,3.77v2.04c0,.2-.16.36-.36.36h-8.06c-.17,0-.32.16-.29.33.08.5.24.94.46,1.31.27.45.64.8,1.12,1.07.48.26,1.06.4,1.75.4s1.38-.08,2.02-.25c.54-.14,1.08-.35,1.63-.63.16-.08.36-.01.43.16l.88,2.14c.07.18.02.38-.14.49-.61.42-1.34.77-2.19,1.05-.98.33-2.08.49-3.3.49ZM47.56,11.74c.19,0,.34-.16.34-.35,0-.6-.05-1.05-.2-1.51-.14-.41-.36-.72-.68-.94-.32-.22-.73-.33-1.25-.33s-.96.13-1.3.4c-.34.26-.6.63-.77,1.09-.14.38-.25.84-.33,1.31-.03.17.11.33.29.33h3.91Z"/>
  <path class="cls-1" d="M166.83,21.19c-1.48,0-2.77-.32-3.88-.97-1.1-.65-1.96-1.53-2.57-2.66-.61-1.13-.91-2.41-.91-3.84v-.55c0-1.53.28-2.89.83-4.07.56-1.19,1.36-2.12,2.4-2.79,1.05-.67,2.3-1.01,3.76-1,1.39,0,2.55.27,3.51.81.95.54,1.68,1.32,2.17,2.35s.74,2.29.74,3.77v2.04c0,.2-.16.36-.36.36h-8.06c-.17,0-.32.16-.29.33.08.5.24.94.46,1.31.27.45.64.8,1.12,1.07.48.26,1.06.4,1.75.4s1.38-.08,2.02-.25c.54-.14,1.08-.35,1.63-.63.16-.08.36-.01.43.16l.88,2.14c.07.18.02.38-.14.49-.61.42-1.34.77-2.19,1.05-.98.33-2.08.49-3.3.49ZM168.37,11.74c.19,0,.34-.16.34-.35,0-.6-.05-1.05-.2-1.51-.14-.41-.36-.72-.68-.94-.32-.22-.73-.33-1.25-.33s-.96.13-1.3.4c-.34.26-.6.63-.77,1.09-.14.38-.25.84-.33,1.31-.03.17.11.33.29.33h3.91Z"/>
  <path class="cls-1" d="M53.71,20.53v-2c0-.18.13-.33.31-.36l1.28-.2c.18-.03.31-.18.31-.36v-8.73c0-.18-.13-.33-.31-.36l-1.54-.21c-.18-.02-.31-.18-.31-.36v-2.01c0-.2.16-.36.36-.36h5.76c.19,0,.35.15.36.34l.09,1.55c0,.09.12.12.17.05.48-.66,1.05-1.19,1.72-1.58.74-.43,1.59-.64,2.55-.64,1.47,0,2.63.49,3.48,1.46.85.97,1.27,2.5,1.27,4.6v6.26c0,.18.13.33.31.36l1.27.2c.18.03.31.18.31.36v2c0,.2-.16.36-.36.36h-7.32c-.2,0-.36-.16-.36-.36v-2.01c0-.18.13-.33.3-.36l1.03-.19c.17-.03.3-.18.3-.36v-6.26c0-.92-.19-1.58-.56-1.97-.37-.39-.91-.59-1.62-.59-.53,0-.99.11-1.38.32-.28.15-.53.35-.74.6-.16.18-.24.41-.24.64v7.27c0,.17.12.32.29.36l.89.18c.17.03.29.18.29.36v2.01c0,.2-.16.36-.36.36h-7.17c-.2,0-.36-.16-.36-.36Z"/>
  <path class="cls-1" d="M82.06,21.19c-1.98,0-3.72-.41-5.23-1.22-1.51-.82-2.68-1.98-3.52-3.5-.84-1.52-1.26-3.34-1.26-5.46v-.81c0-1.99.4-3.75,1.19-5.28.79-1.53,1.92-2.73,3.39-3.61,1.47-.87,3.21-1.31,5.23-1.31,1.41,0,2.75.19,4.01.58,1.17.36,2.24.92,3.2,1.7.14.11.23.29.23.48v3.45c0,.2-.16.36-.36.36h-2.79c-.19,0-.34-.14-.36-.33l-.14-1.43c-.01-.15-.09-.28-.22-.36-.29-.18-.64-.38-.93-.51-.36-.16-.74-.28-1.16-.37-.42-.08-.86-.13-1.34-.13-1.11,0-2.07.27-2.89.81-.81.54-1.44,1.31-1.88,2.31-.44,1-.66,2.2-.66,3.61v.83c0,1.36.23,2.54.69,3.56.46,1.01,1.11,1.8,1.94,2.35.84.56,1.81.83,2.93.83.58,0,1.17-.06,1.75-.19.48-.1,1-.27,1.46-.43.17-.06.3-.22.32-.4l.14-1.28c.02-.18.18-.32.36-.32h2.79c.2,0,.36.16.36.36v3.37c0,.21-.1.4-.28.51-.76.47-1.69.88-2.78,1.23-1.23.39-2.62.59-4.18.59Z"/>
  <path class="cls-1" d="M108.97,20.53v-2c0-.18.13-.33.31-.36l1.29-.2c.18-.03.31-.18.31-.36V3.79c0-.18-.13-.33-.31-.36l-1.56-.21c-.18-.02-.31-.18-.31-.36V.85c0-.2.16-.36.36-.36h5.99c.2,0,.36.16.36.36v16.76c0,.18.13.33.31.36l1.28.2c.18.03.31.18.31.36v2c0,.2-.16.36-.36.36h-7.61c-.2,0-.36-.16-.36-.36Z"/>
  <path class="cls-1" d="M135.27,21.19c-1.59,0-2.85-.51-3.76-1.52-.91-1.01-1.37-2.58-1.37-4.7v-6.09c0-.18-.13-.33-.3-.36l-1.06-.19c-.17-.03-.3-.18-.3-.36v-2.02c0-.2.16-.36.36-.36h5.46c.2,0,.36.16.36.36v9.04c0,.92.17,1.61.52,2.04.35.44.88.66,1.6.66.49,0,.95-.09,1.36-.28.29-.13.54-.3.77-.51.19-.18.3-.44.3-.7v-7.32c0-.18-.13-.33-.3-.36l-1.14-.19c-.17-.03-.3-.18-.3-.36v-2.02c0-.2.16-.36.36-.36h5.54c.2,0,.36.16.36.36v11.66c0,.18.13.33.31.36l1.27.2c.18.03.31.18.31.36v2c0,.2-.16.36-.36.36h-5.24c-.18,0-.34-.14-.36-.32l-.14-1.28c0-.09-.12-.11-.17-.05-.46.59-1.02,1.06-1.66,1.39-.71.37-1.52.55-2.43.55Z"/>
  <path class="cls-1" d="M97.48,21.19c-1.59,0-2.85-.51-3.76-1.52-.91-1.01-1.37-2.58-1.37-4.7v-6.09c0-.18-.13-.33-.3-.36l-1.06-.19c-.17-.03-.3-.18-.3-.36v-2.02c0-.2.16-.36.36-.36h5.46c.2,0,.36.16.36.36v9.04c0,.92.17,1.61.52,2.04.35.44.88.66,1.6.66.49,0,.95-.09,1.36-.28.29-.13.54-.3.77-.51.19-.18.3-.44.3-.7v-7.32c0-.18-.13-.33-.3-.36l-1.14-.19c-.17-.03-.3-.18-.3-.36v-2.02c0-.2.16-.36.36-.36h5.54c.2,0,.36.16.36.36v11.66c0,.18.13.33.31.36l1.27.2c.18.03.31.18.31.36v2c0,.2-.16.36-.36.36h-5.24c-.18,0-.34-.14-.36-.32l-.14-1.28c0-.09-.12-.11-.17-.05-.46.59-1.02,1.06-1.66,1.39-.71.37-1.52.55-2.43.55Z"/>
  <path class="cls-1" d="M147.42,20.53v-2c0-.18.13-.33.31-.36l1.27-.2c.18-.03.31-.18.31-.36v-8.73c0-.18-.13-.33-.31-.36l-1.52-.21c-.18-.02-.31-.18-.31-.36v-2.01c0-.2.16-.36.36-.36h5.74c.19,0,.35.15.36.35l.08,1.5c0,.1.14.13.18.04.33-.68.72-1.19,1.17-1.55.53-.41,1.18-.62,1.95-.62.23,0,.48.02.77.06.18.02.35.05.51.09.18.04.29.21.27.39l-.39,3.51c-.02.19-.19.33-.38.32l-1.74-.08c-.55-.03-.98.05-1.3.23-.22.12-.42.28-.62.49-.18.18-.28.43-.28.69v6.62c0,.18.13.33.31.36l1.28.2c.18.03.31.18.31.36v2c0,.2-.16.36-.36.36h-7.58c-.2,0-.36-.16-.36-.36Z"/>
  <path class="cls-1" d="M.24,49.1v-1.78l2.31-.2v-16.62l-2.31-.2v-1.8h15.49v4.95h-2.23l-.16-2.79H5.33v7.13h7.54v2.19h-7.54v7.13l2.31.2v1.78H.24Z"/>
  <path class="cls-1" d="M23.55,49.4c-1.41,0-2.63-.33-3.66-1-1.02-.66-1.81-1.58-2.37-2.76-.56-1.17-.83-2.51-.83-4.02v-.31c0-1.51.28-2.85.83-4.02.56-1.17,1.35-2.1,2.37-2.76,1.02-.67,2.23-1,3.63-1s2.63.33,3.66,1c1.02.67,1.81,1.59,2.37,2.76.56,1.17.83,2.51.83,4.03v.31c0,1.52-.28,2.86-.83,4.04-.56,1.17-1.34,2.09-2.36,2.75-1.02.66-2.23.99-3.63.99ZM23.55,47.22c.89,0,1.63-.24,2.23-.73.6-.49,1.05-1.15,1.36-1.99.31-.84.46-1.8.46-2.88v-.31c0-1.07-.15-2.03-.46-2.88-.31-.84-.76-1.51-1.36-1.99-.6-.49-1.35-.73-2.25-.73s-1.63.24-2.23.73c-.6.49-1.06,1.15-1.36,1.99-.3.84-.45,1.8-.45,2.88v.31c0,1.07.15,2.03.45,2.88.3.84.76,1.51,1.36,1.99.61.49,1.36.73,2.26.73Z"/>
  <path class="cls-1" d="M39.26,49.4c-1.66,0-2.96-.53-3.89-1.6-.93-1.07-1.4-2.72-1.4-4.98v-7.03l-1.75-.2v-1.8h4.54v9.05c0,1.63.24,2.75.72,3.37.48.61,1.23.92,2.25.92s1.81-.2,2.45-.6c.65-.4,1.13-.97,1.46-1.7v-9.04l-2.05-.2v-1.8h4.84v13.32l1.75.2v1.78h-4.35l-.09-2.26c-.48.82-1.1,1.45-1.86,1.9-.76.44-1.63.66-2.62.66Z"/>
  <path class="cls-1" d="M50.14,49.1v-1.78l2.31-.2v-11.33l-2.31-.2v-1.8h4.89l.1,2.28c.51-.81,1.15-1.44,1.92-1.89.77-.45,1.64-.67,2.62-.67,1.65,0,2.93.48,3.83,1.45.91.97,1.36,2.46,1.36,4.48v7.68l2.31.2v1.78h-7.4v-1.78l2.31-.2v-7.62c0-1.35-.27-2.31-.8-2.87-.53-.57-1.35-.85-2.44-.85-.8,0-1.51.19-2.13.58-.62.39-1.11.91-1.48,1.58v9.18l2.31.2v1.78h-7.4Z"/>
  <path class="cls-1" d="M137.66,49.1v-1.78l2.31-.2v-11.33l-2.31-.2v-1.8h4.89l.1,2.28c.51-.81,1.15-1.44,1.92-1.89.77-.45,1.64-.67,2.62-.67,1.65,0,2.93.48,3.83,1.45.91.97,1.36,2.46,1.36,4.48v7.68l2.31.2v1.78h-7.4v-1.78l2.31-.2v-7.62c0-1.35-.27-2.31-.8-2.87-.53-.57-1.35-.85-2.44-.85-.8,0-1.51.19-2.13.58-.62.39-1.11.91-1.48,1.58v9.18l2.31.2v1.78h-7.4Z"/>
  <path class="cls-1" d="M75,49.4c-1.24,0-2.31-.31-3.2-.93s-1.57-1.48-2.04-2.58c-.47-1.1-.71-2.39-.71-3.86v-.3c0-1.64.24-3.08.71-4.31.47-1.24,1.15-2.19,2.05-2.88.9-.68,1.97-1.03,3.22-1.03.91,0,1.7.17,2.4.5.69.33,1.28.82,1.77,1.45v-4.96l-2.31-.2v-1.8h5.09v18.61l2.31.2v1.78h-4.84l-.11-1.82c-.5.7-1.11,1.23-1.83,1.58s-1.56.54-2.51.54ZM75.71,47.14c.83,0,1.53-.19,2.09-.57.57-.38,1.03-.91,1.4-1.6v-7.1c-.36-.64-.83-1.15-1.4-1.53-.58-.38-1.26-.57-2.06-.57-.89,0-1.62.25-2.19.76-.58.5-1,1.2-1.29,2.09s-.42,1.93-.42,3.1v.3c0,1.54.32,2.77.95,3.71.63.93,1.61,1.4,2.93,1.4Z"/>
  <path class="cls-1" d="M91.16,49.4c-1.59,0-2.81-.39-3.63-1.17-.83-.78-1.24-1.87-1.24-3.29,0-.97.27-1.82.8-2.54.53-.72,1.3-1.28,2.31-1.68,1.01-.4,2.22-.6,3.62-.6h2.73v-1.5c0-.92-.28-1.64-.84-2.15-.56-.51-1.35-.76-2.37-.76-.64,0-1.2.08-1.67.23-.47.16-1.04.43-1.44.75l-.15,2.03h-2.15v-3.51c.69-.56,1.49-.98,2.4-1.27.91-.29,1.93-.43,3.04-.43,1.86,0,3.31.44,4.37,1.33,1.06.89,1.58,2.15,1.58,3.8v7.37c0,.2,0,.39,0,.58,0,.19.02.43.04.62l1.48.1v1.78h-4.15s-.12-1.11-.15-2.11c-.54.69-1.21,1.26-2.02,1.72-.81.46-1.67.69-2.58.69ZM91.57,47.06c.92,0,1.77-.22,2.53-.66.76-.44,1.31-.98,1.64-1.6v-2.77h-2.83c-1.28,0-2.24.31-2.89.92-.64.61-.96,1.3-.96,2.05,0,.67.21,1.18.62,1.53.41.35,1.04.53,1.88.53Z"/>
  <path class="cls-1" d="M107.63,49.34c-1.13,0-2.03-.33-2.69-1-.66-.66-1-1.73-1-3.19v-9.29h-2.42v-2.06h2.42v-3.82h2.79v3.82h3.32v2.06h-3.32v9.29c0,.74.15,1.28.44,1.63.29.35.68.52,1.17.52.33,0,.67-.02,1.1-.04s.69-.06.95-.1l.35,1.87c-.42.1-.86.18-1.46.23-.69.06-1.14.08-1.65.08Z"/>
  <path class="cls-1" d="M112.45,49.1v-1.78l2.31-.2v-11.33l-2.31-.2v-1.8h5.09v13.32l2.31.2v1.78h-7.4ZM114.61,31.49v-2.98h2.93v2.98h-2.93Z"/>
  <path class="cls-1" d="M128.68,49.4c-1.41,0-2.63-.33-3.66-1-1.02-.66-1.81-1.58-2.37-2.76-.56-1.17-.83-2.51-.83-4.02v-.31c0-1.51.28-2.85.83-4.02.56-1.17,1.35-2.1,2.37-2.76,1.02-.67,2.23-1,3.63-1s2.63.33,3.66,1c1.02.67,1.81,1.59,2.37,2.76.56,1.17.83,2.51.83,4.03v.31c0,1.52-.28,2.86-.83,4.04-.56,1.17-1.34,2.09-2.36,2.75s-2.23.99-3.63.99ZM128.68,47.22c.89,0,1.63-.24,2.23-.73.6-.49,1.05-1.15,1.36-1.99.31-.84.46-1.8.46-2.88v-.31c0-1.07-.15-2.03-.46-2.88-.31-.84-.76-1.51-1.36-1.99-.6-.49-1.35-.73-2.25-.73s-1.63.24-2.23.73c-.6.49-1.06,1.15-1.36,1.99-.3.84-.45,1.8-.45,2.88v.31c0,1.07.15,2.03.45,2.88.3.84.76,1.51,1.36,1.99.61.49,1.36.73,2.26.73Z"/>
  <path class="cls-1" d="M157.48,47.12v1.98h15.1v-1.98h-15.1Z"/>
  <path class="cls-1" d="M124.65,21.2c-1.51,0-2.66-.41-3.46-1.22-.8-.82-1.2-2.11-1.2-3.88v-6.99c0-.2-.16-.36-.36-.36h-1.28c-.2,0-.36-.16-.36-.36v-2.43c0-.2.16-.36.36-.36h1.28c.2,0,.36-.16.36-.36v-3.04c0-.2.16-.36.36-.36h3.77c.2,0,.36.16.36.36v3.04c0,.2.16.36.36.36h1.95c.2,0,.36.16.36.36v2.43c0,.2-.16.36-.36.36h-1.95c-.2,0-.36.16-.36.36v6.98c0,.55.12.94.36,1.17.24.23.57.35.98.35.25,0,.57-.02.89-.06.19-.02.36.11.37.3l.27,2.61c.02.21-.11.41-.32.46-.32.08-.64.15-.98.2-.47.07-.94.09-1.41.09Z"/>
</svg>