<?xml version="1.0" encoding="utf-8"?>
<!-- Generator: Adobe Illustrator 25.2.1, SVG Export Plug-In . SVG Version: 6.00 Build 0)  -->
<svg version="1.1" id="content" xmlns="http://www.w3.org/2000/svg" xmlns:xlink="http://www.w3.org/1999/xlink" x="0px" y="0px"
	 viewBox="0 0 1280 228" style="enable-background:new 0 0 1280 228;" xml:space="preserve">
<style type="text/css">
	.st0{fill:#FFFFFF;stroke:#FFFFFF;stroke-width:0.5;stroke-miterlimit:10;}
</style>
<g>
	<rect x="75.5" class="st0" width="75.3" height="9.9"/>
	<rect y="9.9" class="st0" width="75.3" height="9.9"/>
	<rect x="75.3" y="9.9" class="st0" width="75.3" height="19.8"/>
	<rect x="150.6" y="59.2" class="st0" width="75.3" height="9.9"/>
	<rect x="225.9" y="69.1" class="st0" width="75.3" height="9.9"/>
	<rect x="150.6" y="98.7" class="st0" width="75.3" height="9.9"/>
	<rect x="225.9" y="118.5" class="st0" width="75.3" height="9.9"/>
	<rect x="225.9" y="177.7" class="st0" width="75.3" height="9.9"/>
	<rect x="301.2" y="217.2" class="st0" width="75.3" height="9.9"/>
	<rect x="376.5" y="167.9" class="st0" width="75.3" height="9.9"/>
	<rect x="301.2" y="128.4" class="st0" width="75.3" height="9.9"/>
	<rect x="376.5" y="98.7" class="st0" width="75.3" height="9.9"/>
	<rect x="301.2" y="79" class="st0" width="75.3" height="9.9"/>
	<rect x="301.2" y="9.9" class="st0" width="75.3" height="9.9"/>
	<rect x="301.2" y="49.4" class="st0" width="75.3" height="9.9"/>
	<rect x="376.5" y="59.2" class="st0" width="75.3" height="9.9"/>
	<rect x="75.3" y="79" class="st0" width="75.3" height="9.9"/>
	<rect x="75.5" y="49.4" class="st0" width="75.3" height="9.9"/>
	<rect x="225.9" y="39.5" class="st0" width="75.3" height="9.9"/>
	<rect x="225.9" y="9.9" class="st0" width="75.3" height="19.8"/>
	<rect x="527" y="167.9" class="st0" width="75.3" height="9.9"/>
	<rect x="451.8" y="79" class="st0" width="75.3" height="9.9"/>
	<rect x="752.9" y="217.2" class="st0" width="75.3" height="9.9"/>
	<rect x="150.6" y="9.9" class="st0" width="75.3" height="29.6"/>
	<rect y="29.6" class="st0" width="75.3" height="9.9"/>
	<rect x="1129.4" y="148.2" class="st0" width="75.3" height="9.9"/>
</g>
</svg>
