<?xml version="1.0" encoding="iso-8859-1"?>
<!-- Generator: Adobe Illustrator 19.0.0, SVG Export Plug-In . SVG Version: 6.00 Build 0)  -->
<svg version="1.1" id="Capa_1" xmlns="http://www.w3.org/2000/svg" xmlns:xlink="http://www.w3.org/1999/xlink" x="0px" y="0px"
	 viewBox="0 0 511.9 511.9" style="enable-background:new 0 0 511.9 511.9;" xml:space="preserve">
<g>
	<g>
		<path d="M460.8,25.55c-28.2-0.1-51.1,22.8-51.2,51c0,13.3,5.1,26.1,14.4,35.6l-93.5,187.1c-2-0.3-4.1-0.6-6.2-0.6
			c-6.6,0-13.2,1.3-19.3,3.8l-72.6-81.7c4.2-7.5,6.5-15.9,6.6-24.6c0-28.3-22.9-51.2-51.2-51.2s-51.2,22.9-51.2,51.2
			c0.1,12.2,4.5,24,12.6,33.2l-88.9,155.5c-3-0.6-6.1-0.9-9.1-0.9c-28.3,0-51.2,22.9-51.2,51.2c0,28.3,22.9,51.2,51.2,51.2
			s51.2-22.9,51.2-51.2c-0.1-12.2-4.5-24-12.6-33.2l88.8-155.5c9.5,1.9,19.4,0.9,28.3-2.9l72.6,81.7c-4.2,7.5-6.4,16-6.5,24.6
			c-0.1,28.3,22.8,51.3,51,51.4c28.3,0.1,51.3-22.8,51.4-51c0-13.3-5.1-26.2-14.4-35.8l93.5-187.1c2,0.3,4.1,0.6,6.2,0.6
			c28.3,0,51.2-22.9,51.2-51.2S489.1,25.55,460.8,25.55z"/>
	</g>
</g>
<g>
</g>
<g>
</g>
<g>
</g>
<g>
</g>
<g>
</g>
<g>
</g>
<g>
</g>
<g>
</g>
<g>
</g>
<g>
</g>
<g>
</g>
<g>
</g>
<g>
</g>
<g>
</g>
<g>
</g>
</svg>
