<svg id="Capa_1" enable-background="new 0 0 512 512" height="512" viewBox="0 0 512 512" width="512" xmlns="http://www.w3.org/2000/svg"><g><g><path d="m409.546 39.825h-343.455v-22.223c0-5.579 4.523-10.102 10.102-10.102h323.252c5.579 0 10.102 4.523 10.102 10.102v22.223z" fill="#d3effb"/></g><g><path d="m419.648 72.15h-363.659v-22.223c0-5.579 4.523-10.102 10.102-10.102h343.455c5.579 0 10.102 4.523 10.102 10.102z" fill="#cbe2ff"/></g><g><path d="m449.953 504.5h-423.152l-1.117-131.321h424.269z" fill="#9d66d5"/></g><g><path d="m449.953 439.562-61.185-61.185c.772-1.722 1.503-3.456 2.201-5.198h-262.653c6.891 17.295 17.319 33.497 31.296 47.475 26.711 26.711 62.225 41.422 100.001 41.422 19.97 0 39.647-4.212 57.715-12.279l54.703 54.704h77.921v-64.939z" fill="#8659b9"/></g><g><path d="m429.749 373.179h-383.862v-290.927c0-5.579 4.523-10.102 10.102-10.102h363.659c5.579 0 10.102 4.523 10.102 10.102v290.927z" fill="#f4fbff"/></g><g><path d="m66.091 116.598h125.26v101.016h-125.26z" fill="#dd636e" transform="matrix(0 1 -1 0 295.827 38.385)"/></g><g><path d="m419.648 72.15h-26.625c5.579 0 10.102 4.523 10.102 10.102v290.927h26.625v-290.927c-.001-5.579-4.523-10.102-10.102-10.102z" fill="#e4f6ff"/></g><g><g><path d="m325.024 398.185h60.61v36.366h-60.61z" fill="#2b4d66" transform="matrix(.707 -.707 .707 .707 -190.343 373.207)"/></g><g><path d="m362.86 423.9h36.366v36.366h-36.366z" fill="#4a80aa" transform="matrix(.707 -.707 .707 .707 -200.995 398.921)"/></g><g><path d="m486.318 504.5h-85.715l-28.131-28.131 42.857-42.858z" fill="#407093"/></g><g><path d="m415.329 433.511-14.285 14.286 56.703 56.703h28.571z" fill="#365e7d"/></g><g><circle cx="259.614" cy="320.653" fill="#407093" r="121.22"/></g><g><path d="m332.92 224.113c15.483 20.358 24.679 45.757 24.679 73.307 0 66.948-54.272 121.22-121.22 121.22-27.55 0-52.948-9.197-73.307-24.679 22.141 29.113 57.143 47.913 96.54 47.913 66.948 0 121.22-54.272 121.22-121.22.001-39.399-18.799-74.401-47.912-96.541z" fill="#365e7d"/></g><g><circle cx="259.614" cy="320.653" fill="#e4f6ff" r="88.894"/></g><g><path d="m313.296 249.798c11.319 14.916 18.04 33.513 18.04 53.682 0 49.095-39.799 88.894-88.894 88.894-20.169 0-38.765-6.721-53.682-18.04 16.233 21.393 41.929 35.212 70.855 35.212 49.095 0 88.894-39.799 88.894-88.894-.001-28.925-13.82-54.62-35.213-70.854z" fill="#d3effb"/></g></g><g><path d="m45.891 280.16c4.142 0 7.5-3.358 7.5-7.5v-190.41c0-1.432 1.164-2.597 2.596-2.6h.002 363.659.005c1.433.001 2.598 1.167 2.598 2.6v90.41c0 4.142 3.358 7.5 7.5 7.5s7.5-3.358 7.5-7.5v-90.41c0-7.021-4.143-13.078-10.104-15.9v-16.423c0-7.021-4.142-13.077-10.102-15.9v-16.425c.001-9.706-7.895-17.602-17.601-17.602h-323.252c-9.706 0-17.602 7.896-17.602 17.602v16.425c-5.96 2.823-10.102 8.879-10.102 15.9v16.426c-5.958 2.823-10.098 8.878-10.098 15.897v190.41c.001 4.142 3.359 7.5 7.501 7.5zm17.598-230.233c0-1.435 1.167-2.602 2.602-2.602h343.456c1.435 0 2.602 1.167 2.602 2.602v14.723h-348.66zm10.102-32.325c0-1.435 1.167-2.602 2.602-2.602h323.252c1.435 0 2.602 1.167 2.602 2.602v14.724h-328.456z"/><path d="m327.775 252.492c-18.207-18.207-42.413-28.233-68.161-28.233s-49.955 10.027-68.161 28.233-28.233 42.413-28.233 68.161 10.027 49.955 28.233 68.161 42.413 28.233 68.161 28.233 49.955-10.027 68.161-28.233 28.233-42.413 28.233-68.161-10.027-49.955-28.233-68.161zm-10.607 125.716c-15.374 15.373-35.813 23.84-57.555 23.84s-42.181-8.467-57.555-23.84c-15.373-15.374-23.84-35.813-23.84-57.555s8.467-42.181 23.84-57.555c15.374-15.373 35.813-23.84 57.555-23.84s42.181 8.467 57.555 23.84c15.373 15.374 23.84 35.813 23.84 57.555s-8.467 42.181-23.84 57.555z"/><path d="m491.621 499.197-34.17-34.17v-91.847c0-4.142-3.358-7.5-7.5-7.5h-12.7v-158.02c0-4.142-3.358-7.5-7.5-7.5s-7.5 3.358-7.5 7.5v158.02h-42.062c17.011-45.762 7.162-99.327-29.557-136.046-44.516-44.516-113.791-49.54-163.903-15.086v-110.072c0-4.142-3.358-7.5-7.5-7.5h-101.016c-4.142 0-7.5 3.358-7.5 7.5v125.26c0 4.142 3.358 7.5 7.5 7.5h83.369c-30.901 36.262-38.414 85.748-22.543 128.444h-85.648v-58.02c0-4.142-3.358-7.5-7.5-7.5s-7.5 3.358-7.5 7.5v58.02h-12.71c-2 0-3.917.799-5.326 2.219s-2.191 3.345-2.174 5.345l1.12 131.32c.035 4.117 3.382 7.436 7.5 7.436h44.56c4.142 0 7.5-3.358 7.5-7.5s-3.358-7.5-7.5-7.5h-37.123l-.992-116.32h112.49c5.871 11.154 13.49 21.621 22.859 30.991 25.094 25.094 58.056 37.641 91.019 37.641 20.747 0 41.493-4.975 60.278-14.917l21.562 21.562c1.406 1.407 3.314 2.197 5.303 2.197s3.897-.79 5.303-2.197l3.268-3.269 15.108 15.108-3.268 3.268c-2.929 2.929-2.929 7.678 0 10.606l15.329 15.33h-276.136c-4.142 0-7.5 3.358-7.5 7.5s3.358 7.5 7.5 7.5h294.24c.006 0 .01-.001.017-.001 1.914-.004 3.828-.735 5.288-2.196 2.929-2.929 2.929-7.678 0-10.606l-22.828-22.828 32.251-32.251 65.686 65.686c1.464 1.464 3.384 2.197 5.303 2.197s3.839-.732 5.303-2.197c2.93-2.929 2.93-7.679 0-10.607zm-405.908-387.221h86.016v110.26h-86.016zm93.488 289.089c-44.339-44.339-44.339-116.485 0-160.824 22.17-22.169 51.291-33.254 80.412-33.254s58.242 11.084 80.412 33.254c44.339 44.339 44.339 116.485 0 160.824-44.34 44.338-116.485 44.338-160.824 0zm153.875 25.301c6.175-4.295 12.055-9.193 17.556-14.695s10.399-11.381 14.695-17.556l13.682 13.681-32.251 32.251zm32.859 15.717 15.108-15.108 15.108 15.108-15.108 15.108zm44.091-13.875-3.268 3.268-15.108-15.108 3.268-3.269c1.407-1.406 2.197-3.314 2.197-5.303s-.79-3.897-2.197-5.303l-21.562-21.562c.044-.084.091-.167.136-.251h68.96v69.347l-21.819-21.819c-2.929-2.929-7.678-2.929-10.607 0z"/><path d="m397.424 96.976h-183.85c-4.142 0-7.5 3.358-7.5 7.5s3.358 7.5 7.5 7.5h183.85c4.142 0 7.5-3.358 7.5-7.5s-3.358-7.5-7.5-7.5z"/><path d="m404.924 136.801c0-4.142-3.358-7.5-7.5-7.5h-183.85c-4.142 0-7.5 3.358-7.5 7.5s3.358 7.5 7.5 7.5h183.85c4.142 0 7.5-3.358 7.5-7.5z"/><path d="m213.575 161.626c-4.142 0-7.5 3.358-7.5 7.5s3.358 7.5 7.5 7.5h123.24c4.142 0 7.5-3.358 7.5-7.5s-3.358-7.5-7.5-7.5z"/></g></g></svg>