<svg id="Layer_1" data-name="Layer 1" xmlns="http://www.w3.org/2000/svg" viewBox="0 160 512 170.66"><defs><style>.cls-1{fill:#517862}</style></defs><title>social</title><path class="cls-1" d="M81.9 308.12q-8.46 5.64-14.09 5.64a14.93 14.93 0 0 1-11.51-4.93c-2.82-3.29-4.46-8-4.46-13.62 0-7.75 3.05-15.27 9.39-22.55 6.11-7 11.74-10.57 17.14-10.57 4.23 0 7 1.41 8.92 4.46a18.69 18.69 0 0 1 1.88 8.92 19.06 19.06 0 0 1-.23 4 24.37 24.37 0 0 1-.7 2.82h9.16l6.58-27c-3.05-.47-5.4-.94-7.28-1.17a97.59 97.59 0 0 0-12.92-.94c-14.8 0-27.48 3.76-37.58 11Q30 275.83 30 294.5c0 9.16 3.52 16.44 10.33 21.61 6.34 4.7 14.09 7 23.49 7a47.92 47.92 0 0 0 18.79-3.76 42.2 42.2 0 0 0 11.51-7c1.17-1.17 2.58-2.35 4-3.76l-8.92-5.87c-3.07 2.35-5.42 4.28-7.3 5.4z"/><path class="cls-1" d="M174.44 256.46a34.58 34.58 0 0 0-8.92-4.46l-23.72 7.75v6.11a8.34 8.34 0 0 1 2.35-.47h3.29a11.43 11.43 0 0 1 2.82.23 6.89 6.89 0 0 1 2.35.7 9.69 9.69 0 0 1 5.64 6.11c.94 2.11 1.17 5.17 1.17 8.69 0 7.75-2.58 15.27-7.52 22.31S141.56 314 135.45 314c-4.46 0-8-1.17-10.1-3.76q-4.23-4.58-4.23-14.8c0-6.11 1.88-12.68 5.4-20.2a92.79 92.79 0 0 1 10.1-15.74c3.29-4.23 4.93-6.34 5.4-6.34h-18.78c-.47 0-2.58 1.64-6.34 4.7a56.4 56.4 0 0 0-11.51 13.62c-4 6.81-6.11 13.62-6.11 20.9 0 8.69 2.58 15.74 8 20.9 5.64 5.64 13.39 8.45 23.49 8.45a49.63 49.63 0 0 0 18.77-3.73 54 54 0 0 0 19-12.21c5.17-5.4 8.92-10.1 11.27-14.33 2.82-4.93 4-10.57 4-16.91a23.17 23.17 0 0 0-9.37-18.09zM242.55 276.18h8.69l6.11-22.31c-3.52-.47-6.58-.94-8.69-1.17a146.66 146.66 0 0 0-16.21-.94 114 114 0 0 0-21.14 1.88c-7.75 1.41-13.62 4-18.08 7.28a18.71 18.71 0 0 0-7.75 15.5c0 6.34 3.52 10.57 10.57 13.15 6.58 1.41 13.15 2.82 20 4 6.81 1.41 10.1 3.76 10.1 7.52s-2.58 6.81-7.52 8.92a34.66 34.66 0 0 1-14.33 2.82 47.12 47.12 0 0 1-17.61-3.52 48.61 48.61 0 0 1-7-3.52v12.45c3.76.94 6.58 1.64 8.92 2.11a80.54 80.54 0 0 0 16.21 2.11 70.13 70.13 0 0 0 29.59-6.11c9.86-4.46 14.8-10.33 14.8-17.14 0-5.87-3.52-10.57-10.8-13.62-6.58-1.64-13.39-3.52-20.2-5.64-6.81-1.88-10.33-4.46-10.33-7.75 0-4.23 2.11-7.28 6.34-9.39 3.29-1.88 7.75-2.58 12.92-2.58 4.23 0 7 .23 8.92.94a13.33 13.33 0 0 1 4.14 2.83 7.72 7.72 0 0 1 1.64 3.76 35.6 35.6 0 0 1 .47 5.4v2.35l.23.7z"/><path class="cls-1" d="M304.55 308.12c-5.64 3.76-10.1 5.64-14.09 5.64a14.92 14.92 0 0 1-11.46-4.93c-2.82-3.29-4.46-8-4.46-13.62 0-7.75 3.05-15.27 9.39-22.55 6.11-7 11.74-10.57 17.14-10.57 4.23 0 7.28 1.41 8.92 4.46 1.41 2.11 1.88 5.17 1.88 8.92a19.06 19.06 0 0 1-.23 4 24.37 24.37 0 0 1-.7 2.82h9.16l6.53-27.29c-3.05-.47-5.4-.94-7.28-1.17a97.59 97.59 0 0 0-12.92-.94c-14.8 0-27.48 3.76-37.58 11q-16.21 11.63-16.21 30.3c0 9.16 3.52 16.44 10.33 21.61 6.34 4.7 14.09 7 23.49 7a47.92 47.92 0 0 0 18.79-3.76 42.2 42.2 0 0 0 11.51-7c1.17-1.17 2.58-2.35 4-3.76l-9.16-5.87a52 52 0 0 1-7.05 5.71zM386 253.4c-1.64 4.46-3.29 9.16-4.93 13.62a141.86 141.86 0 0 1-12.45 25.36C362.8 301.55 357.16 306 352 306c-2.58 0-4.46-.7-5.4-1.88a7.75 7.75 0 0 1-1.64-4.93 16.16 16.16 0 0 1 .47-3.05c.23-1.17.47-1.88.47-2.11l11.51-40.87h-23L323.81 290c-.47 2.11-.94 3.76-1.17 5.17a50.1 50.1 0 0 0-.94 9.16c0 5.87 1.64 10.57 4.7 13.86a17.35 17.35 0 0 0 12.68 5.17c5.4 0 11-2.11 16.68-6.11a59.27 59.27 0 0 0 11.51-11.51c1.41-2.11 2.82-4 4.23-6.11a3.24 3.24 0 0 1 .7-.94 2.49 2.49 0 0 1 1.41-.94c.47 0 .7.47.7 1.17a2.55 2.55 0 0 1-.23 1.17 2.52 2.52 0 0 1-.47 1.41L368 321.28h23l17.14-68.34H386v.47zM482.34 257.63a38 38 0 0 0-18.55-4.46H422l-18.1 68.58h22.31l16.44-60.83h11a14.56 14.56 0 0 1 10.33 4c2.58 2.58 4 6.34 4 11a14.66 14.66 0 0 1-7.75 13.39 39.39 39.39 0 0 1-14.33 4.7 40.41 40.41 0 0 1-7.52.47l-1.64 6.34c.7 0 1.41.23 2.11.23h3.29a93.28 93.28 0 0 0 18.86-1.62c8.69-1.64 15.5-4.46 20.43-8.22a23.83 23.83 0 0 0 9.57-19.72c.27-5.64-2.79-10.34-8.66-13.86zM180.78 212.54c12.21.47 27 4.93 44.62 16l-6.11 10.57 38-8.45-11.69-37.15-6.11 10.57c-15.27-7.28-28.65-10.1-40.4-10.1 14.56-8.92 38.52-13.62 73.51 8.69l-6.11 10.57 38-8.45-11.74-37.11-6.34 10.57c-47.91-23-78.21-1.88-93.47 16-41.1 4-59.65 44.15-59.65 44.15s14.38-27.27 47.49-25.86z"/></svg>